<svg width="121" height="201" viewBox="0 0 121 201" fill="none" xmlns="http://www.w3.org/2000/svg">
<g filter="url(#filter0_d_123_1317)">
<path d="M20.2725 169.653V165.006H38.7607V169.653C38.7607 171.699 37.0875 173.372 35.0425 173.372H23.9907C21.9454 173.372 20.2725 171.698 20.2725 169.653Z" fill="url(#paint0_linear_123_1317)"/>
<path d="M83.5518 44.4037C83.5518 44.4037 74.1878 27 53.5305 27C44.5372 27 37.2374 30.8474 32.3776 35.7072C17.8751 48.6384 18 74.0472 18 74.0472C18 77.7213 18 159.937 18 163.056C18 164.296 19.0046 165.301 20.2441 165.301H38.6373C39.9034 165.301 40.9298 164.274 40.9298 163.008C40.9298 158.527 40.9298 92.3052 40.9298 87.8359V81.4991C44.477 83.5187 48.659 84.8407 53.5305 84.8407C74.1878 84.8407 83.5518 67.4369 83.5518 67.4369C83.5518 67.365 83.5518 69.0293 83.5518 44.4037Z" fill="url(#paint1_radial_123_1317)"/>
<path d="M83.5509 44.4324C81.0742 41.3289 76.0984 43.0906 76.0984 47.1549V64.6864C76.0984 68.7521 81.0759 70.5104 83.5509 67.4089L83.5517 67.4375" fill="#EFEFEF"/>
<path d="M80.2815 68.986C82.5918 68.986 84.4647 67.1132 84.4647 64.8029V47.0376C84.4647 44.7274 82.5918 42.8545 80.2815 42.8545C77.9712 42.8545 76.0984 44.7274 76.0984 47.0376V64.8032C76.0984 67.1132 77.9712 68.986 80.2815 68.986Z" fill="url(#paint2_linear_123_1317)"/>
<path d="M45.9813 70.8037C40.8137 73.7276 40.956 81.4256 40.9331 81.5006C42.3113 82.2849 43.7868 82.9624 45.36 83.4995V81.4989C45.36 80.1354 45.8745 75.9508 48.1616 74.6566C49.2255 74.0547 49.6002 72.7044 48.998 71.6402C48.3959 70.5766 47.0461 70.2022 45.9813 70.8037Z" fill="#D7EEF5"/>
<path d="M29.136 53.7492C28.0243 53.241 27.5353 51.9276 28.044 50.8156C30.511 45.4228 33.9903 40.7707 39.0065 37.0427C39.9876 36.3128 41.3738 36.5174 42.1034 37.4985C42.8327 38.4796 42.6285 39.8661 41.6476 40.5951C40.7476 41.2642 39.8928 42.0019 39.1073 42.7873C36.5057 45.3761 34.4111 47.5391 32.0699 52.6575C31.6978 53.4705 30.244 54.2568 29.136 53.7492Z" fill="url(#paint3_linear_123_1317)"/>
<path d="M63.5496 60.1041C65.8599 60.1041 67.7327 58.2312 67.7327 55.9209C67.7327 53.6106 65.8599 51.7378 63.5496 51.7378C61.2393 51.7378 59.3665 53.6106 59.3665 55.9209C59.3665 58.2312 61.2393 60.1041 63.5496 60.1041Z" fill="url(#paint4_linear_123_1317)"/>
<path d="M24.0493 72.7308C24.0493 70.805 26.3825 69.7545 27.8297 71.1639C28.7338 72.0938 28.6487 73.4765 27.8297 74.2949C26.8391 75.2869 24.0493 74.7449 24.0493 72.7308Z" fill="#C4E0E8"/>
<path d="M33.5004 159.903H25.5323C24.3099 159.903 23.3191 158.913 23.3191 157.69C23.3191 156.468 24.3099 155.477 25.5323 155.477H33.5004C34.7227 155.477 35.7135 156.468 35.7135 157.69C35.7138 158.913 34.7227 159.903 33.5004 159.903Z" fill="#D7EEF5"/>
</g>
<defs>
<filter id="filter0_d_123_1317" x="0" y="0" width="120.465" height="200.372" filterUnits="userSpaceOnUse" color-interpolation-filters="sRGB">
<feFlood flood-opacity="0" result="BackgroundImageFix"/>
<feColorMatrix in="SourceAlpha" type="matrix" values="0 0 0 0 0 0 0 0 0 0 0 0 0 0 0 0 0 0 127 0" result="hardAlpha"/>
<feOffset dx="9"/>
<feGaussianBlur stdDeviation="13.5"/>
<feColorMatrix type="matrix" values="0 0 0 0 0.555208 0 0 0 0 0.752283 0 0 0 0 0.8125 0 0 0 0.5 0"/>
<feBlend mode="normal" in2="BackgroundImageFix" result="effect1_dropShadow_123_1317"/>
<feBlend mode="normal" in="SourceGraphic" in2="effect1_dropShadow_123_1317" result="shape"/>
</filter>
<linearGradient id="paint0_linear_123_1317" x1="29.5166" y1="165.006" x2="29.5166" y2="173.372" gradientUnits="userSpaceOnUse">
<stop stop-color="#B0D7E2"/>
<stop offset="1" stop-color="#D4EBF1"/>
</linearGradient>
<radialGradient id="paint1_radial_123_1317" cx="0" cy="0" r="1" gradientUnits="userSpaceOnUse" gradientTransform="translate(34.5 160.872) rotate(-72.1252) scale(226.43 360.827)">
<stop stop-color="white"/>
<stop offset="1" stop-color="#E1F4FD"/>
</radialGradient>
<linearGradient id="paint2_linear_123_1317" x1="80.2815" y1="42.8545" x2="80.2815" y2="68.986" gradientUnits="userSpaceOnUse">
<stop stop-color="#B0D7E2"/>
<stop offset="1" stop-color="#D4EBF1"/>
</linearGradient>
<linearGradient id="paint3_linear_123_1317" x1="35.1917" y1="36.6052" x2="35.1917" y2="53.9099" gradientUnits="userSpaceOnUse">
<stop stop-color="#B0D7E2"/>
<stop offset="1" stop-color="#D4EBF1"/>
</linearGradient>
<linearGradient id="paint4_linear_123_1317" x1="63.5496" y1="51.7378" x2="63.5496" y2="60.1041" gradientUnits="userSpaceOnUse">
<stop stop-color="#B0D7E2"/>
<stop offset="1" stop-color="#D4EBF1"/>
</linearGradient>
</defs>
</svg>
