<svg width="157" height="209" viewBox="0 0 157 209" fill="none" xmlns="http://www.w3.org/2000/svg">
<g filter="url(#filter0_d_120_356)">
<path d="M62.1367 178.184V166.172C45.7305 165.326 32.9701 161.224 23.8555 153.867C14.806 146.576 10.2487 136.745 10.1836 124.375H44.0703C44.3307 128.607 46.1211 132.22 49.4414 135.215C52.8268 138.21 57.0586 139.967 62.1367 140.488V109.629L50.5156 107.188C25.3203 101.589 12.7227 88.0794 12.7227 66.6602C12.7227 54.0951 17.0521 44.0365 25.7109 36.4844C34.3047 28.9323 46.4466 24.6029 62.1367 23.4961V10.3125H76.1016V23.5938C90.4896 24.9609 101.915 29.4206 110.379 36.9727C118.908 44.5247 123.237 54.0625 123.367 65.5859H90.5547C90.4245 61.8099 88.9922 58.457 86.2578 55.5273C83.5234 52.5326 80.138 50.7096 76.1016 50.0586V79.8438L87.7227 81.9922C113.439 86.875 126.297 100.254 126.297 122.129C126.297 134.889 121.935 145.046 113.211 152.598C104.552 160.215 92.1823 164.674 76.1016 165.977V178.184H62.1367ZM92.8008 126.133C92.8008 118.776 87.2344 114.089 76.1016 112.07V140.488C81.3099 140.033 85.3789 138.535 88.3086 135.996C91.3034 133.457 92.8008 130.169 92.8008 126.133ZM47.0977 63.2422C47.0977 70.3385 52.1107 74.9284 62.1367 77.0117V49.9609C57.7096 50.2214 54.0964 51.5885 51.2969 54.0625C48.4974 56.5365 47.0977 59.5964 47.0977 63.2422Z" fill="url(#paint0_linear_120_356)"/>
</g>
<defs>
<filter id="filter0_d_120_356" x="0.183594" y="0.3125" width="156.113" height="207.871" filterUnits="userSpaceOnUse" color-interpolation-filters="sRGB">
<feFlood flood-opacity="0" result="BackgroundImageFix"/>
<feColorMatrix in="SourceAlpha" type="matrix" values="0 0 0 0 0 0 0 0 0 0 0 0 0 0 0 0 0 0 127 0" result="hardAlpha"/>
<feOffset dx="10" dy="10"/>
<feGaussianBlur stdDeviation="10"/>
<feColorMatrix type="matrix" values="0 0 0 0 0.555208 0 0 0 0 0.752283 0 0 0 0 0.8125 0 0 0 0.5 0"/>
<feBlend mode="normal" in2="BackgroundImageFix" result="effect1_dropShadow_120_356"/>
<feBlend mode="normal" in="SourceGraphic" in2="effect1_dropShadow_120_356" result="shape"/>
</filter>
<linearGradient id="paint0_linear_120_356" x1="24.115" y1="93.998" x2="167.123" y2="93.998" gradientUnits="userSpaceOnUse">
<stop stop-color="white"/>
<stop offset="1" stop-color="#E1F4FD"/>
</linearGradient>
</defs>
</svg>
