<svg width="141" height="104" viewBox="0 0 141 104" fill="none" xmlns="http://www.w3.org/2000/svg">
<g filter="url(#filter0_d_120_352)">
<path d="M59.1734 79.5204C52.4104 79.5204 45.8786 76.6302 41.3699 71.5435L41.1965 71.3701L40.9653 71.5435C37.4971 74.0869 33.4508 75.4741 29.1156 75.4741C18.1907 75.4741 9.28894 66.5724 9.28894 55.6475C9.28894 47.0348 14.7803 39.4625 22.8728 36.7458L23.104 36.688V36.4567C23.104 36.1099 23.104 35.7631 23.104 35.4741C23.104 21.0232 34.8381 9.28906 49.289 9.28906C57.5549 9.28906 65.185 13.0463 70.1561 19.6937L70.3295 19.9249L70.5607 19.7515C74.1445 16.8035 78.711 15.185 83.3931 15.185C93.5665 15.185 102.237 22.7573 103.567 32.8729V33.0463L103.74 33.1041C111.601 36.1677 116.688 43.6244 116.688 52.0637C116.688 63.2776 107.555 72.4105 96.3411 72.4105C90.6186 72.4105 85.1272 69.9828 81.3122 65.7631L81.0232 65.4163L80.8497 65.8209C76.9191 74.0869 68.3642 79.5204 59.1734 79.5204Z" fill="url(#paint0_linear_120_352)"/>
<path d="M49.2313 9.57804C57.3816 9.57804 64.9538 13.3353 69.8671 19.8671L70.214 20.3295L70.6764 19.9249C74.2602 17.0347 78.7111 15.4162 83.3354 15.4162C93.3932 15.4162 101.89 22.9307 103.22 32.8151L103.278 33.1619L103.624 33.2775C111.37 36.2833 116.399 43.6243 116.399 51.948C116.399 62.9885 107.439 72.0059 96.3412 72.0059C90.7342 72.0059 85.3007 69.6359 81.5435 65.4741L80.9654 64.8382L80.6186 65.6475C76.7458 73.9134 68.3643 79.2313 59.2313 79.2313C52.5261 79.2313 46.1099 76.3411 41.6012 71.37L41.2544 70.9654L40.8498 71.2544C37.4393 73.7978 33.4509 75.1273 29.1734 75.1273C18.3642 75.1273 9.57804 66.3411 9.57804 55.5897C9.57804 47.1503 14.9538 39.6937 22.9885 37.0347L23.3931 36.9191V36.4567C23.3931 36.1099 23.3931 35.763 23.3931 35.474C23.3353 21.1965 34.9538 9.57804 49.2313 9.57804ZM49.2313 9C34.607 9 22.7572 20.8497 22.7572 35.474C22.7572 35.8208 22.7572 36.1677 22.7572 36.5145C14.7804 39.1735 9 46.6879 9 55.5897C9 66.6879 18.0174 75.7053 29.1156 75.7053C33.6243 75.7053 37.7862 74.2024 41.1388 71.7169C45.5896 76.688 52.0058 79.7516 59.1735 79.7516C68.8845 79.7516 77.2082 74.029 81.081 65.8209C84.8383 69.9828 90.2718 72.5839 96.3412 72.5839C107.728 72.5839 116.977 63.3353 116.977 51.948C116.977 43.2197 111.544 35.763 103.856 32.7573C102.526 22.6416 93.9134 14.8382 83.451 14.8382C78.5377 14.8382 73.9712 16.5723 70.4452 19.4624C65.5319 13.1041 57.844 9 49.2313 9Z" fill="white"/>
</g>
<defs>
<filter id="filter0_d_120_352" x="0.991977" y="0.991977" width="140.009" height="102.784" filterUnits="userSpaceOnUse" color-interpolation-filters="sRGB">
<feFlood flood-opacity="0" result="BackgroundImageFix"/>
<feColorMatrix in="SourceAlpha" type="matrix" values="0 0 0 0 0 0 0 0 0 0 0 0 0 0 0 0 0 0 127 0" result="hardAlpha"/>
<feOffset dx="8.00802" dy="8.00802"/>
<feGaussianBlur stdDeviation="8.00802"/>
<feColorMatrix type="matrix" values="0 0 0 0 0.555208 0 0 0 0 0.752283 0 0 0 0 0.8125 0 0 0 0.5 0"/>
<feBlend mode="normal" in2="BackgroundImageFix" result="effect1_dropShadow_120_352"/>
<feBlend mode="normal" in="SourceGraphic" in2="effect1_dropShadow_120_352" result="shape"/>
</filter>
<linearGradient id="paint0_linear_120_352" x1="29.6535" y1="44.4001" x2="137.058" y2="44.4001" gradientUnits="userSpaceOnUse">
<stop stop-color="white"/>
<stop offset="1" stop-color="#E1F4FD"/>
</linearGradient>
</defs>
</svg>
