<svg width="37" height="37" viewBox="0 0 37 37" fill="none" xmlns="http://www.w3.org/2000/svg">
<path fill-rule="evenodd" clip-rule="evenodd" d="M18.5 36C28.165 36 36 28.165 36 18.5C36 8.83502 28.165 1 18.5 1C8.83502 1 1 8.83502 1 18.5C1 28.165 8.83502 36 18.5 36Z" stroke="black"/>
<path fill-rule="evenodd" clip-rule="evenodd" d="M15.4235 21.4573C15.4235 21.4573 21.4502 27.0336 24.8468 25.2757C24.8468 25.2757 25.7855 24.4962 25.8764 23.7304C25.9673 22.9646 25.1874 22.4509 24.8861 22.2764C24.1645 21.8566 23.4224 21.4654 22.6861 21.0671C22.4535 20.9409 22.2012 20.7986 21.9263 20.8684C21.7673 20.9096 21.6034 20.9543 21.4581 21.0242C20.9398 21.2712 20.5147 21.5039 19.9532 21.7357C19.9532 21.7357 19.38 21.5659 17.242 19.5922C14.9704 17.4951 15.2774 16.7153 15.2774 16.7153C15.5729 16.3332 15.8418 15.9331 16.0657 15.5115C16.1619 15.3298 16.2944 15.1543 16.3503 14.9565C16.4073 14.7578 16.2905 14.6155 16.1923 14.441C15.9744 14.0507 15.7417 13.6676 15.5002 13.289C15.084 12.6347 14.6589 11.9527 14.1278 11.3682C14.0719 11.3074 13.9413 11.1248 13.8343 11.1319C12.6534 11.2044 11.4901 12.2812 11.4901 12.2812C9.66223 15.328 15.4235 21.4573 15.4235 21.4573Z" fill="black"/>
</svg>
