<svg width="37" height="37" viewBox="0 0 37 37" fill="none" xmlns="http://www.w3.org/2000/svg">
<path fill-rule="evenodd" clip-rule="evenodd" d="M18.5 36C28.165 36 36 28.165 36 18.5C36 8.83502 28.165 1 18.5 1C8.83502 1 1 8.83502 1 18.5C1 28.165 8.83502 36 18.5 36Z" stroke="black"/>
<path fill-rule="evenodd" clip-rule="evenodd" d="M25.1913 13.8943L18.6648 20.5867C18.5791 20.6751 18.4234 20.6751 18.3378 20.5885C15.3821 17.5499 13.0611 15.1138 11.9558 13.8943H25.1913ZM11.1318 22.5687V14.4275C11.7876 15.1846 12.9629 16.4317 15.0297 18.5713L11.1318 22.5687ZM21.9778 18.579L25.8683 22.569V14.589L21.9778 18.579ZM18.5013 21.6389C18.8191 21.6389 19.1175 21.5118 19.3422 21.2815L21.3004 19.2736L25.4866 23.5658H11.5151L15.705 19.269C16.2917 19.8751 16.9411 20.5429 17.6595 21.2815C17.8842 21.5118 18.1826 21.6389 18.5013 21.6389Z" fill="black"/>
</svg>
