<svg width="99" height="125" viewBox="0 0 99 125" fill="none" xmlns="http://www.w3.org/2000/svg">
<g filter="url(#filter0_d_120_355)">
<path d="M36.5684 94.5918V88.5859C28.3652 88.1628 21.985 86.112 17.4277 82.4336C12.903 78.7878 10.6243 73.8724 10.5918 67.6875H27.5352C27.6654 69.8034 28.5605 71.61 30.2207 73.1074C31.9134 74.6048 34.0293 75.4837 36.5684 75.7441V60.3145L30.7578 59.0938C18.1602 56.2943 11.8613 49.5397 11.8613 38.8301C11.8613 32.5475 14.026 27.5182 18.3555 23.7422C22.6523 19.9661 28.7233 17.8014 36.5684 17.248V10.6562H43.5508V17.2969C50.7448 17.9805 56.4577 20.2103 60.6895 23.9863C64.9538 27.7624 67.1185 32.5312 67.1836 38.293H50.7773C50.7122 36.4049 49.9961 34.7285 48.6289 33.2637C47.2617 31.7663 45.569 30.8548 43.5508 30.5293V45.4219L49.3613 46.4961C62.2194 48.9375 68.6484 55.627 68.6484 66.5645C68.6484 72.9447 66.4674 78.0228 62.1055 81.7988C57.776 85.6074 51.5911 87.8372 43.5508 88.4883V94.5918H36.5684ZM51.9004 68.5664C51.9004 64.888 49.1172 62.5443 43.5508 61.5352V75.7441C46.1549 75.5163 48.1895 74.7676 49.6543 73.498C51.1517 72.2285 51.9004 70.5846 51.9004 68.5664ZM29.0488 37.1211C29.0488 40.6693 31.5553 42.9642 36.5684 44.0059V30.4805C34.3548 30.6107 32.5482 31.2943 31.1484 32.5312C29.7487 33.7682 29.0488 35.2982 29.0488 37.1211Z" fill="url(#paint0_linear_120_355)"/>
</g>
<defs>
<filter id="filter0_d_120_355" x="0.591797" y="0.65625" width="98.0566" height="123.936" filterUnits="userSpaceOnUse" color-interpolation-filters="sRGB">
<feFlood flood-opacity="0" result="BackgroundImageFix"/>
<feColorMatrix in="SourceAlpha" type="matrix" values="0 0 0 0 0 0 0 0 0 0 0 0 0 0 0 0 0 0 127 0" result="hardAlpha"/>
<feOffset dx="10" dy="10"/>
<feGaussianBlur stdDeviation="10"/>
<feColorMatrix type="matrix" values="0 0 0 0 0.555208 0 0 0 0 0.752283 0 0 0 0 0.8125 0 0 0 0.5 0"/>
<feBlend mode="normal" in2="BackgroundImageFix" result="effect1_dropShadow_120_355"/>
<feBlend mode="normal" in="SourceGraphic" in2="effect1_dropShadow_120_355" result="shape"/>
</filter>
<linearGradient id="paint0_linear_120_355" x1="17.6523" y1="51.998" x2="89.6562" y2="51.998" gradientUnits="userSpaceOnUse">
<stop stop-color="white"/>
<stop offset="1" stop-color="#E1F4FD"/>
</linearGradient>
</defs>
</svg>
