<svg width="312" height="557" viewBox="0 0 312 557" fill="none" xmlns="http://www.w3.org/2000/svg">
<g filter="url(#filter0_d_123_1283)">
<path fill-rule="evenodd" clip-rule="evenodd" d="M25.0028 279.03C25.0037 210.086 24.9892 141.143 25.0185 72.1997C25.0231 61.1615 29.3541 51.9491 37.4197 44.5033C41.5352 40.7043 46.3754 38.2177 51.9631 37.37C53.4109 37.1502 54.891 37.054 56.3564 37.0535C100.654 37.0379 144.952 37.0412 189.25 37.0415C203.199 37.0416 217.15 37.152 231.097 37.002C240.172 36.9044 247.562 40.3394 253.601 46.8921C259.373 53.1543 262.665 60.5769 263.482 69.0674C263.588 70.1729 263.551 71.2937 263.551 72.4075C263.554 157.395 263.554 242.382 263.554 327.369C263.554 380.224 263.486 433.079 263.602 485.934C263.631 499.011 254.876 512.678 242.874 518.15C239.086 519.877 235.125 520.706 230.955 520.705C183.359 520.689 135.763 520.695 88.1664 520.694C78.2283 520.694 68.2889 520.599 58.3524 520.725C50.5118 520.825 43.7691 518.163 37.9277 513.117C31.303 507.394 27.0062 500.25 25.4719 491.575C25.125 489.614 25.0223 487.588 25.0207 485.592C24.9943 452.569 25.0019 419.546 25.0019 386.522C25.0019 350.691 25.0019 314.861 25.0028 279.03" fill="black"/>
<path fill-rule="evenodd" clip-rule="evenodd" d="M250.024 69.8804L250.024 486.513C249.938 487.167 249.848 487.82 249.766 488.474C249.701 489.001 249.706 489.544 249.577 490.053C247.403 498.601 242.195 504.23 233.595 506.541C232.232 506.908 230.822 507.099 229.434 507.372H60.4271C59.9939 507.293 59.5633 507.196 59.1272 507.14C50.0323 505.964 43.7939 501.14 40.5598 492.535C39.4162 489.492 39.2205 486.298 39.2206 483.07C39.2312 352.282 39.2298 221.495 39.2278 90.7067C39.2278 88.1669 39.2078 85.627 39.1809 83.0871C39.1766 82.6957 39.0851 82.3052 39.0339 81.9141V77.368C39.0929 76.7543 39.169 76.1417 39.208 75.5267C39.3657 73.0398 39.2836 70.513 39.7027 68.0719C41.4117 58.1176 49.6106 50.6177 59.6831 50.1649C67.3306 49.8213 75.0041 50.0267 82.6658 50.0482C84.5472 50.0536 85.5222 51.2104 85.6189 53.1371C85.6837 54.4257 85.6969 55.7308 85.9228 56.9946C86.9666 62.839 91.8408 66.882 97.8031 66.89C109.164 66.9049 120.524 66.9057 131.885 66.9067C151.621 66.9083 171.357 66.9069 191.094 66.9006C191.759 66.9005 192.435 66.893 193.09 66.7903C199.318 65.8131 203.438 61.0149 203.539 54.6768C203.552 53.8787 203.632 53.078 203.739 52.2862C203.846 51.4937 204.249 50.793 204.978 50.4919C205.656 50.212 206.431 50.0476 207.165 50.0438C213.535 50.0105 219.906 50.014 226.277 50.0308C228.592 50.037 230.9 50.1145 233.183 50.6093C242.029 52.5264 248.874 60.1323 249.815 69.1288C249.841 69.3838 249.953 69.6301 250.024 69.8804" fill="#F0FBFD"/>
<path fill-rule="evenodd" clip-rule="evenodd" d="M39.3253 278.739C39.3253 215.636 39.3262 152.533 39.328 89.4305C39.328 83.2372 39.2424 77.0398 39.3949 70.8492C39.6342 61.1634 46.9132 52.574 56.3771 50.559C58.0764 50.1937 59.8094 50.0086 61.5475 50.0068C68.4549 50.0082 75.3613 50.0064 82.2669 50.0015C83.2911 49.9988 84.2177 50.174 84.929 50.9775C85.4571 51.5752 85.6483 52.2852 85.663 53.0714C85.6925 54.5422 85.7192 56.0197 86.0374 57.4597C87.2435 62.9136 91.9299 66.8139 97.5323 66.858C106.041 66.9262 114.553 66.8821 123.064 66.8834C145.521 66.8847 167.979 66.8847 190.436 66.8834C191.593 66.8834 192.747 66.8914 193.895 66.6507C199.287 65.5511 203.245 60.9332 203.508 55.4367C203.552 54.5917 203.542 53.7426 203.604 52.8989C203.735 51.1019 204.829 50.0229 206.638 50.0189C214.034 50.0028 221.434 49.8892 228.828 50.0603C238.586 50.2876 246.571 56.5933 249.318 65.9595C249.832 67.7144 250.09 69.5341 250.085 71.3626C250.076 86.2487 250.076 101.133 250.086 116.017C250.086 238.656 250.09 361.299 250.099 483.944C250.099 487.033 249.941 490.081 248.776 492.996C245.637 500.831 239.917 505.502 231.614 507.009C230.159 507.276 228.687 507.276 227.218 507.276H66.4065C64.4463 507.276 62.4835 507.303 60.5247 507.236C50.0233 506.902 41.4125 499.387 39.6168 489.025C39.3561 487.514 39.3307 486.003 39.3307 484.492C39.3267 438.363 39.3258 392.238 39.328 346.118V278.739H39.3253V278.739Z" fill="#ECF1F3" fill-opacity="0.01" stroke="#C4D1D7" stroke-opacity="0.38" stroke-width="1.20606" stroke-linejoin="round"/>
</g>
<g filter="url(#filter1_dd_123_1283)">
<path d="M144 107C108.104 107 79 136.104 79 172C79 207.896 108.104 237 144 237C179.896 237 209 207.896 209 172C209 136.104 179.896 107 144 107Z" fill="url(#paint0_linear_123_1283)"/>
</g>
<path d="M144 127C119.149 127 99 147.149 99 172C99 196.851 119.149 217 144 217C168.851 217 189 196.851 189 172C189 147.149 168.851 127 144 127Z" fill="#007AFF"/>
<path d="M125.619 163.129C121.45 170.365 124.1 181.344 128.711 188.002C131.013 191.33 133.343 194.318 136.534 194.318C136.594 194.318 136.655 194.317 136.716 194.314C138.216 194.254 139.299 193.793 140.347 193.347C141.523 192.845 142.74 192.327 144.648 192.327C146.463 192.327 147.621 192.829 148.741 193.313C149.846 193.791 150.983 194.285 152.663 194.254C156.258 194.187 158.465 190.963 160.413 188.119C162.444 185.149 163.464 182.266 163.808 181.164L163.822 181.12C163.887 180.924 163.795 180.711 163.607 180.624C163.602 180.622 163.583 180.614 163.577 180.612C162.944 180.353 157.391 177.89 157.333 171.175C157.279 165.72 161.499 162.831 162.345 162.308L162.384 162.283C162.476 162.224 162.54 162.131 162.562 162.024C162.584 161.917 162.561 161.805 162.499 161.716C159.587 157.453 155.122 156.81 153.325 156.733C153.064 156.707 152.795 156.694 152.524 156.694C150.413 156.694 148.391 157.491 146.766 158.132C145.644 158.574 144.676 158.956 144.008 158.956C143.257 158.956 142.283 158.57 141.154 158.122C139.646 157.523 137.936 156.845 136.126 156.845C136.083 156.845 136.04 156.845 135.998 156.846C131.789 156.908 127.812 159.316 125.619 163.129Z" fill="white"/>
<path d="M153.328 145C150.779 145.104 147.722 146.673 145.894 148.814C144.341 150.613 142.824 153.613 143.224 156.636C143.249 156.826 143.403 156.972 143.593 156.986C143.765 157 143.941 157.007 144.115 157.007C146.608 157.007 149.296 155.628 151.132 153.408C153.065 151.064 154.042 148.055 153.746 145.36C153.723 145.149 153.537 144.992 153.328 145Z" fill="white"/>
<g filter="url(#filter2_d_123_1283)">
<path d="M144 282C135.716 282 129 288.716 129 297C129 305.284 135.716 312 144 312C152.284 312 159 305.284 159 297C159 288.716 152.284 282 144 282Z" fill="url(#paint1_linear_123_1283)"/>
</g>
<rect x="144" y="247" width="1" height="25" fill="#CAEAF4"/>
<g filter="url(#filter3_d_123_1283)">
<path d="M144 357C135.716 357 129 363.716 129 372C129 380.284 135.716 387 144 387C152.284 387 159 380.284 159 372C159 363.716 152.284 357 144 357Z" fill="url(#paint2_linear_123_1283)"/>
</g>
<rect x="144" y="322" width="1" height="25" fill="#CAEAF4"/>
<path d="M98.9102 471.437V457.082H93.7773V454.527H107.066V457.082H101.934V471.437H98.9102ZM112.738 471.625C110.848 471.625 109.348 471.035 108.238 469.855C107.129 468.675 106.574 467.066 106.574 465.027C106.574 463.011 107.133 461.41 108.25 460.222C109.359 459.042 110.855 458.453 112.738 458.453C114.629 458.453 116.129 459.042 117.238 460.222C118.355 461.402 118.914 463.003 118.914 465.027C118.914 467.066 118.359 468.675 117.25 469.855C116.141 471.035 114.637 471.625 112.738 471.625ZM112.738 469.292C113.746 469.292 114.535 468.917 115.105 468.167C115.668 467.425 115.949 466.382 115.949 465.039C115.949 463.703 115.664 462.66 115.094 461.91C114.531 461.16 113.746 460.785 112.738 460.785C111.738 460.785 110.957 461.16 110.395 461.91C109.824 462.66 109.539 463.703 109.539 465.039C109.539 466.375 109.824 467.417 110.395 468.167C110.957 468.917 111.738 469.292 112.738 469.292ZM126.754 471.625C124.863 471.625 123.363 471.035 122.254 469.855C121.145 468.675 120.59 467.066 120.59 465.027C120.59 463.011 121.148 461.41 122.266 460.222C123.375 459.042 124.871 458.453 126.754 458.453C128.645 458.453 130.145 459.042 131.254 460.222C132.371 461.402 132.93 463.003 132.93 465.027C132.93 467.066 132.375 468.675 131.266 469.855C130.156 471.035 128.652 471.625 126.754 471.625ZM126.754 469.292C127.762 469.292 128.551 468.917 129.121 468.167C129.684 467.425 129.965 466.382 129.965 465.039C129.965 463.703 129.68 462.66 129.109 461.91C128.547 461.16 127.762 460.785 126.754 460.785C125.754 460.785 124.973 461.16 124.41 461.91C123.84 462.66 123.555 463.703 123.555 465.039C123.555 466.375 123.84 467.417 124.41 468.167C124.973 468.917 125.754 469.292 126.754 469.292ZM146.57 471.437H142.973L138.145 465.671H138.051V471.437H135.145V458.628H138.051V463.996H138.145L142.914 458.628H146.324L140.852 464.617L146.57 471.437ZM152.02 471.437V457.082H146.887V454.527H160.176V457.082H155.043V471.437H152.02ZM165.848 471.625C163.957 471.625 162.457 471.035 161.348 469.855C160.238 468.675 159.684 467.066 159.684 465.027C159.684 463.011 160.242 461.41 161.359 460.222C162.469 459.042 163.965 458.453 165.848 458.453C167.738 458.453 169.238 459.042 170.348 460.222C171.465 461.402 172.023 463.003 172.023 465.027C172.023 467.066 171.469 468.675 170.359 469.855C169.25 471.035 167.746 471.625 165.848 471.625ZM165.848 469.292C166.855 469.292 167.645 468.917 168.215 468.167C168.777 467.425 169.059 466.382 169.059 465.039C169.059 463.703 168.773 462.66 168.203 461.91C167.641 461.16 166.855 460.785 165.848 460.785C164.848 460.785 164.066 461.16 163.504 461.91C162.934 462.66 162.648 463.703 162.648 465.039C162.648 466.375 162.934 467.417 163.504 468.167C164.066 468.917 164.848 469.292 165.848 469.292ZM179.863 471.625C177.973 471.625 176.473 471.035 175.363 469.855C174.254 468.675 173.699 467.066 173.699 465.027C173.699 463.011 174.258 461.41 175.375 460.222C176.484 459.042 177.98 458.453 179.863 458.453C181.754 458.453 183.254 459.042 184.363 460.222C185.48 461.402 186.039 463.003 186.039 465.027C186.039 467.066 185.484 468.675 184.375 469.855C183.266 471.035 181.762 471.625 179.863 471.625ZM179.863 469.292C180.871 469.292 181.66 468.917 182.23 468.167C182.793 467.425 183.074 466.382 183.074 465.039C183.074 463.703 182.789 462.66 182.219 461.91C181.656 461.16 180.871 460.785 179.863 460.785C178.863 460.785 178.082 461.16 177.52 461.91C176.949 462.66 176.664 463.703 176.664 465.039C176.664 466.375 176.949 467.417 177.52 468.167C178.082 468.917 178.863 469.292 179.863 469.292ZM199.68 471.437H196.082L191.254 465.671H191.16V471.437H188.254V458.628H191.16V463.996H191.254L196.023 458.628H199.434L193.961 464.617L199.68 471.437Z" fill="black"/>
<path d="M78.7285 434.053C78.666 435.104 78.4531 435.824 78.0898 436.215V436.273H82.584V429.271H79.0215L78.7285 434.053ZM77.2051 438.67H76.4551V436.273H77.0527C77.5918 435.992 77.8965 435.242 77.9668 434.023L78.3008 428.545H83.3809V436.273H84.4531V438.67H83.709V437H77.2051V438.67ZM88.4785 436.408C89.127 436.408 89.6348 436.18 90.002 435.723C90.3691 435.27 90.5527 434.643 90.5527 433.842C90.5527 433.041 90.3691 432.414 90.002 431.961C89.6348 431.504 89.127 431.275 88.4785 431.275C87.8301 431.275 87.3223 431.504 86.9551 431.961C86.5879 432.414 86.4043 433.041 86.4043 433.842C86.4043 434.643 86.5879 435.27 86.9551 435.723C87.3223 436.18 87.8301 436.408 88.4785 436.408ZM88.4785 437.105C87.5957 437.105 86.8984 436.812 86.3867 436.227C85.8711 435.645 85.6133 434.85 85.6133 433.842C85.6133 432.834 85.8711 432.039 86.3867 431.457C86.8984 430.875 87.5957 430.584 88.4785 430.584C89.3613 430.584 90.0605 430.875 90.5762 431.457C91.0918 432.039 91.3496 432.834 91.3496 433.842C91.3496 434.85 91.0918 435.645 90.5762 436.227C90.0605 436.812 89.3613 437.105 88.4785 437.105ZM97.4609 432.547C97.3594 432.172 97.1543 431.869 96.8457 431.639C96.5176 431.396 96.1191 431.275 95.6504 431.275C95.0215 431.275 94.5234 431.506 94.1562 431.967C93.7852 432.428 93.5996 433.047 93.5996 433.824C93.5996 434.613 93.7852 435.24 94.1562 435.705C94.5273 436.174 95.0254 436.408 95.6504 436.408C96.1191 436.408 96.5117 436.301 96.8281 436.086C97.1484 435.871 97.3574 435.57 97.4551 435.184H98.2344C98.1367 435.762 97.8633 436.223 97.4141 436.566C96.9492 436.926 96.3633 437.105 95.6562 437.105C94.7852 437.105 94.0938 436.809 93.582 436.215C93.0664 435.625 92.8086 434.828 92.8086 433.824C92.8086 432.836 93.0645 432.049 93.5762 431.463C94.0918 430.877 94.7832 430.584 95.6504 430.584C96.3535 430.584 96.9434 430.773 97.4199 431.152C97.8691 431.512 98.1426 431.977 98.2402 432.547H97.4609ZM104.193 431.34H102.037V437H101.27V431.34H99.1133V430.689H104.193V431.34ZM107.51 436.426C108.076 436.426 108.549 436.256 108.928 435.916C109.311 435.572 109.502 435.15 109.502 434.65V433.912L107.633 434.047C106.574 434.121 106.045 434.52 106.045 435.242C106.045 435.602 106.184 435.889 106.461 436.104C106.73 436.318 107.08 436.426 107.51 436.426ZM107.381 437.105C106.756 437.105 106.246 436.938 105.852 436.602C105.453 436.262 105.254 435.812 105.254 435.254C105.254 434.707 105.451 434.275 105.846 433.959C106.232 433.646 106.793 433.465 107.527 433.414L109.502 433.285V432.676C109.502 432.223 109.369 431.875 109.104 431.633C108.834 431.391 108.443 431.27 107.932 431.27C107.498 431.27 107.135 431.355 106.842 431.527C106.545 431.703 106.359 431.943 106.285 432.248H105.506C105.58 431.748 105.842 431.346 106.291 431.041C106.736 430.736 107.291 430.584 107.955 430.584C108.693 430.584 109.266 430.768 109.672 431.135C110.074 431.498 110.275 432.01 110.275 432.67V437H109.537V435.916H109.467C109.275 436.291 108.996 436.582 108.629 436.789C108.262 437 107.846 437.105 107.381 437.105ZM113.199 431.34V433.414H114.775C115.213 433.414 115.549 433.32 115.783 433.133C116.01 432.949 116.123 432.688 116.123 432.348C116.123 432.035 116.02 431.791 115.812 431.615C115.598 431.432 115.293 431.34 114.898 431.34H113.199ZM113.199 434.064V436.35H114.992C115.945 436.35 116.422 435.965 116.422 435.195C116.422 434.441 115.895 434.064 114.84 434.064H113.199ZM112.432 430.689H114.986C115.576 430.689 116.041 430.832 116.381 431.117C116.713 431.402 116.879 431.789 116.879 432.277C116.879 432.617 116.775 432.918 116.568 433.18C116.361 433.438 116.096 433.598 115.771 433.66V433.736C116.186 433.783 116.521 433.939 116.779 434.205C117.049 434.475 117.184 434.809 117.184 435.207C117.184 435.77 116.994 436.209 116.615 436.525C116.232 436.842 115.697 437 115.01 437H112.432V430.689ZM120.266 434.287C120.195 435.193 120.051 435.857 119.832 436.279C119.562 436.795 119.146 437.053 118.584 437.053C118.455 437.053 118.338 437.033 118.232 436.994V436.285C118.326 436.316 118.432 436.332 118.549 436.332C118.861 436.332 119.096 436.141 119.252 435.758C119.389 435.434 119.482 434.934 119.533 434.258C119.623 433.32 119.705 432.131 119.779 430.689H123.816V437H123.049V431.34H120.477C120.414 432.543 120.344 433.525 120.266 434.287ZM128.41 431.264C127.836 431.264 127.365 431.459 126.998 431.85C126.631 432.244 126.43 432.766 126.395 433.414H130.326C130.318 432.762 130.141 432.24 129.793 431.85C129.441 431.459 128.98 431.264 128.41 431.264ZM131.029 435.441C130.873 435.957 130.564 436.363 130.104 436.66C129.643 436.957 129.082 437.105 128.422 437.105C127.555 437.105 126.867 436.811 126.359 436.221C125.852 435.635 125.598 434.844 125.598 433.848C125.598 432.855 125.854 432.064 126.365 431.475C126.873 430.881 127.557 430.584 128.416 430.584C129.256 430.584 129.918 430.863 130.402 431.422C130.887 431.98 131.129 432.742 131.129 433.707V434.047H126.389V434.082C126.408 434.797 126.604 435.365 126.975 435.787C127.342 436.209 127.83 436.42 128.439 436.42C129.365 436.42 129.969 436.094 130.25 435.441H131.029ZM132.904 430.689H133.672V433.396H137.217V430.689H137.984V437H137.217V434.047H133.672V437H132.904V430.689ZM142.631 436.408C143.279 436.408 143.787 436.18 144.154 435.723C144.521 435.27 144.705 434.643 144.705 433.842C144.705 433.041 144.521 432.414 144.154 431.961C143.787 431.504 143.279 431.275 142.631 431.275C141.982 431.275 141.475 431.504 141.107 431.961C140.74 432.414 140.557 433.041 140.557 433.842C140.557 434.643 140.74 435.27 141.107 435.723C141.475 436.18 141.982 436.408 142.631 436.408ZM142.631 437.105C141.748 437.105 141.051 436.812 140.539 436.227C140.023 435.645 139.766 434.85 139.766 433.842C139.766 432.834 140.023 432.039 140.539 431.457C141.051 430.875 141.748 430.584 142.631 430.584C143.514 430.584 144.213 430.875 144.729 431.457C145.244 432.039 145.502 432.834 145.502 433.842C145.502 434.85 145.244 435.645 144.729 436.227C144.213 436.812 143.514 437.105 142.631 437.105ZM154.859 432.547C154.758 432.172 154.553 431.869 154.244 431.639C153.916 431.396 153.518 431.275 153.049 431.275C152.42 431.275 151.922 431.506 151.555 431.967C151.184 432.428 150.998 433.047 150.998 433.824C150.998 434.613 151.184 435.24 151.555 435.705C151.926 436.174 152.424 436.408 153.049 436.408C153.518 436.408 153.91 436.301 154.227 436.086C154.547 435.871 154.756 435.57 154.854 435.184H155.633C155.535 435.762 155.262 436.223 154.812 436.566C154.348 436.926 153.762 437.105 153.055 437.105C152.184 437.105 151.492 436.809 150.98 436.215C150.465 435.625 150.207 434.828 150.207 433.824C150.207 432.836 150.463 432.049 150.975 431.463C151.49 430.877 152.182 430.584 153.049 430.584C153.752 430.584 154.342 430.773 154.818 431.152C155.268 431.512 155.541 431.977 155.639 432.547H154.859ZM164.85 431.34H161.363V437H160.596V430.689H165.617V437H164.85V431.34ZM170.264 436.408C170.912 436.408 171.42 436.18 171.787 435.723C172.154 435.27 172.338 434.643 172.338 433.842C172.338 433.041 172.154 432.414 171.787 431.961C171.42 431.504 170.912 431.275 170.264 431.275C169.615 431.275 169.107 431.504 168.74 431.961C168.373 432.414 168.189 433.041 168.189 433.842C168.189 434.643 168.373 435.27 168.74 435.723C169.107 436.18 169.615 436.408 170.264 436.408ZM170.264 437.105C169.381 437.105 168.684 436.812 168.172 436.227C167.656 435.645 167.398 434.85 167.398 433.842C167.398 432.834 167.656 432.039 168.172 431.457C168.684 430.875 169.381 430.584 170.264 430.584C171.146 430.584 171.846 430.875 172.361 431.457C172.877 432.039 173.135 432.834 173.135 433.842C173.135 434.85 172.877 435.645 172.361 436.227C171.846 436.812 171.146 437.105 170.264 437.105ZM174.904 437V430.689H175.83L178.309 435.934H178.379L180.846 430.689H181.736V437H180.969V432.096H180.881L178.631 436.877H178.027L175.754 432.096H175.672V437H174.904ZM186.377 436.408C187.025 436.408 187.533 436.18 187.9 435.723C188.268 435.27 188.451 434.643 188.451 433.842C188.451 433.041 188.268 432.414 187.9 431.961C187.533 431.504 187.025 431.275 186.377 431.275C185.729 431.275 185.221 431.504 184.854 431.961C184.486 432.414 184.303 433.041 184.303 433.842C184.303 434.643 184.486 435.27 184.854 435.723C185.221 436.18 185.729 436.408 186.377 436.408ZM186.377 437.105C185.494 437.105 184.797 436.812 184.285 436.227C183.77 435.645 183.512 434.85 183.512 433.842C183.512 432.834 183.77 432.039 184.285 431.457C184.797 430.875 185.494 430.584 186.377 430.584C187.26 430.584 187.959 430.875 188.475 431.457C188.99 432.039 189.248 432.834 189.248 433.842C189.248 434.85 188.99 435.645 188.475 436.227C187.959 436.812 187.26 437.105 186.377 437.105ZM199.062 438.67V437H191.018V430.689H191.785V436.35H194.51V430.689H195.277V436.35H197.996V430.689H198.764V436.35H199.789V438.67H199.062ZM201.969 433.49V436.35H203.34C203.801 436.35 204.17 436.219 204.447 435.957C204.721 435.699 204.857 435.354 204.857 434.92C204.857 434.482 204.719 434.135 204.441 433.877C204.168 433.619 203.801 433.49 203.34 433.49H201.969ZM201.201 430.689H201.969V432.834H203.34C204.039 432.834 204.594 433.021 205.004 433.396C205.418 433.775 205.625 434.283 205.625 434.92C205.625 435.557 205.418 436.062 205.004 436.438C204.594 436.812 204.039 437 203.34 437H201.201V430.689ZM212.229 437.111C211.393 437.111 210.725 436.838 210.225 436.291C209.725 435.748 209.457 435 209.422 434.047H208.074V437H207.307V430.689H208.074V433.396H209.439C209.518 432.521 209.803 431.834 210.295 431.334C210.791 430.834 211.436 430.584 212.229 430.584C213.092 430.584 213.775 430.875 214.279 431.457C214.783 432.043 215.035 432.842 215.035 433.854C215.035 434.861 214.783 435.656 214.279 436.238C213.775 436.82 213.092 437.111 212.229 437.111ZM212.229 436.42C212.857 436.42 213.35 436.191 213.705 435.734C214.064 435.281 214.244 434.654 214.244 433.854C214.244 433.049 214.064 432.418 213.705 431.961C213.35 431.508 212.857 431.281 212.229 431.281C211.6 431.281 211.105 431.508 210.746 431.961C210.391 432.418 210.213 433.049 210.213 433.854C210.213 434.654 210.391 435.281 210.746 435.734C211.105 436.191 211.6 436.42 212.229 436.42Z" fill="black"/>
<defs>
<filter id="filter0_d_123_1283" x="0.878754" y="0.81813" width="310.966" height="556.092" filterUnits="userSpaceOnUse" color-interpolation-filters="sRGB">
<feFlood flood-opacity="0" result="BackgroundImageFix"/>
<feColorMatrix in="SourceAlpha" type="matrix" values="0 0 0 0 0 0 0 0 0 0 0 0 0 0 0 0 0 0 127 0" result="hardAlpha"/>
<feOffset dx="12.0606"/>
<feGaussianBlur stdDeviation="18.0909"/>
<feColorMatrix type="matrix" values="0 0 0 0 0.555208 0 0 0 0 0.752283 0 0 0 0 0.8125 0 0 0 0.5 0"/>
<feBlend mode="normal" in2="BackgroundImageFix" result="effect1_dropShadow_123_1283"/>
<feBlend mode="normal" in="SourceGraphic" in2="effect1_dropShadow_123_1283" result="shape"/>
</filter>
<filter id="filter1_dd_123_1283" x="69" y="97" width="170" height="170" filterUnits="userSpaceOnUse" color-interpolation-filters="sRGB">
<feFlood flood-opacity="0" result="BackgroundImageFix"/>
<feColorMatrix in="SourceAlpha" type="matrix" values="0 0 0 0 0 0 0 0 0 0 0 0 0 0 0 0 0 0 127 0" result="hardAlpha"/>
<feOffset dx="10" dy="10"/>
<feGaussianBlur stdDeviation="10"/>
<feColorMatrix type="matrix" values="0 0 0 0 0.555208 0 0 0 0 0.752283 0 0 0 0 0.8125 0 0 0 0.5 0"/>
<feBlend mode="normal" in2="BackgroundImageFix" result="effect1_dropShadow_123_1283"/>
<feColorMatrix in="SourceAlpha" type="matrix" values="0 0 0 0 0 0 0 0 0 0 0 0 0 0 0 0 0 0 127 0" result="hardAlpha"/>
<feOffset dx="5" dy="5"/>
<feGaussianBlur stdDeviation="7.5"/>
<feColorMatrix type="matrix" values="0 0 0 0 0.555208 0 0 0 0 0.752283 0 0 0 0 0.8125 0 0 0 0.2 0"/>
<feBlend mode="normal" in2="effect1_dropShadow_123_1283" result="effect2_dropShadow_123_1283"/>
<feBlend mode="normal" in="SourceGraphic" in2="effect2_dropShadow_123_1283" result="shape"/>
</filter>
<filter id="filter2_d_123_1283" x="119" y="272" width="70" height="70" filterUnits="userSpaceOnUse" color-interpolation-filters="sRGB">
<feFlood flood-opacity="0" result="BackgroundImageFix"/>
<feColorMatrix in="SourceAlpha" type="matrix" values="0 0 0 0 0 0 0 0 0 0 0 0 0 0 0 0 0 0 127 0" result="hardAlpha"/>
<feOffset dx="10" dy="10"/>
<feGaussianBlur stdDeviation="10"/>
<feColorMatrix type="matrix" values="0 0 0 0 0.555208 0 0 0 0 0.752283 0 0 0 0 0.8125 0 0 0 0.5 0"/>
<feBlend mode="normal" in2="BackgroundImageFix" result="effect1_dropShadow_123_1283"/>
<feBlend mode="normal" in="SourceGraphic" in2="effect1_dropShadow_123_1283" result="shape"/>
</filter>
<filter id="filter3_d_123_1283" x="119" y="347" width="70" height="70" filterUnits="userSpaceOnUse" color-interpolation-filters="sRGB">
<feFlood flood-opacity="0" result="BackgroundImageFix"/>
<feColorMatrix in="SourceAlpha" type="matrix" values="0 0 0 0 0 0 0 0 0 0 0 0 0 0 0 0 0 0 127 0" result="hardAlpha"/>
<feOffset dx="10" dy="10"/>
<feGaussianBlur stdDeviation="10"/>
<feColorMatrix type="matrix" values="0 0 0 0 0.555208 0 0 0 0 0.752283 0 0 0 0 0.8125 0 0 0 0.5 0"/>
<feBlend mode="normal" in2="BackgroundImageFix" result="effect1_dropShadow_123_1283"/>
<feBlend mode="normal" in="SourceGraphic" in2="effect1_dropShadow_123_1283" result="shape"/>
</filter>
<linearGradient id="paint0_linear_123_1283" x1="103.65" y1="171.991" x2="233.657" y2="171.991" gradientUnits="userSpaceOnUse">
<stop stop-color="white"/>
<stop offset="1" stop-color="#E1F4FD"/>
</linearGradient>
<linearGradient id="paint1_linear_123_1283" x1="134.688" y1="296.998" x2="164.69" y2="296.998" gradientUnits="userSpaceOnUse">
<stop stop-color="white"/>
<stop offset="1" stop-color="#E1F4FD"/>
</linearGradient>
<linearGradient id="paint2_linear_123_1283" x1="134.688" y1="371.998" x2="164.69" y2="371.998" gradientUnits="userSpaceOnUse">
<stop stop-color="white"/>
<stop offset="1" stop-color="#E1F4FD"/>
</linearGradient>
</defs>
</svg>
