<svg width="664" height="664" viewBox="0 0 664 664" fill="none" xmlns="http://www.w3.org/2000/svg">
<g filter="url(#filter0_d_120_296)">
<path d="M224.773 364.421C224.963 364.611 225.216 364.864 225.501 365.149L246.206 344.444C245.921 344.159 245.668 343.906 245.51 343.748C242.755 340.993 235.252 337.986 232.719 340.518C230.187 343.051 223.506 349.731 221.544 351.694C219.581 353.657 221.132 360.78 224.773 364.421Z" fill="white"/>
<path d="M225.121 364.453C225.311 364.643 225.565 364.896 225.85 365.181L246.555 344.476C246.27 344.191 246.016 343.938 245.858 343.779C243.104 341.025 235.601 338.017 233.068 340.55C230.535 343.083 223.855 349.763 221.892 351.726C219.898 353.657 221.481 360.812 225.121 364.453Z" fill="url(#paint0_linear_120_296)"/>
<path opacity="0.2" d="M247.22 344.888C245.751 343.419 239.925 346.863 234.208 352.581C228.49 358.298 225.046 364.124 226.515 365.593C227.983 367.061 233.809 363.617 239.527 357.899C245.244 352.182 248.688 346.356 247.22 344.888Z" fill="url(#paint1_radial_120_296)"/>
<path d="M243.958 383.606C244.148 383.796 244.307 383.955 244.465 384.113C259.376 399.024 276.092 406.433 281.791 400.734C287.521 395.004 280.05 378.288 265.17 363.408C264.98 363.218 264.822 363.06 264.663 362.901C264.663 362.901 250.322 348.56 246.206 344.444L225.501 365.149C230.123 369.771 243.958 383.606 243.958 383.606Z" fill="white"/>
<path d="M244.212 383.353C244.402 383.543 244.56 383.701 244.718 383.86C259.63 398.771 276.346 406.179 282.044 400.481C287.774 394.75 280.303 378.034 265.423 363.155C265.233 362.965 265.075 362.807 264.917 362.648C264.917 362.648 250.575 348.307 246.459 344.191L225.754 364.896C230.377 369.518 244.212 383.353 244.212 383.353Z" fill="url(#paint2_linear_120_296)"/>
<path opacity="0.2" d="M240.16 363.598C241.046 352.834 243.642 344.223 245.921 344.413C248.201 344.603 249.309 353.499 248.423 364.263C247.536 375.027 244.94 383.638 242.661 383.448C240.381 383.258 239.273 374.362 240.16 363.598Z" fill="url(#paint3_radial_120_296)"/>
<path d="M338.397 358.438C306.073 326.114 289.199 309.239 229.743 249.784C265.961 303.288 224.14 500.871 224.14 500.871L248.96 526.072C249.024 526.072 301.134 321.175 338.397 358.438Z" fill="white"/>
<path d="M339.315 357.519C306.991 325.196 290.117 308.321 230.661 248.866C266.879 302.369 225.058 499.953 225.058 499.953L249.277 524.996C249.277 524.996 302.052 320.257 339.315 357.519Z" fill="url(#paint4_linear_120_296)"/>
<mask id="mask0_120_296" style="mask-type:alpha" maskUnits="userSpaceOnUse" x="225" y="248" width="115" height="277">
<path d="M339.315 357.519C306.991 325.196 290.117 308.321 230.661 248.866C266.879 302.369 225.058 499.953 225.058 499.953L249.277 524.996C249.277 524.996 302.052 320.257 339.315 357.519Z" fill="url(#paint5_linear_120_296)"/>
</mask>
<g mask="url(#mask0_120_296)">
<path opacity="0.2" d="M236.645 506.918C229.581 499.854 222.834 495.149 221.575 496.408C220.316 497.666 225.022 504.413 232.086 511.477C239.15 518.541 245.897 523.247 247.156 521.988C248.414 520.729 243.709 513.982 236.645 506.918Z" fill="url(#paint6_radial_120_296)"/>
<path opacity="0.2" d="M295.657 298.539C257.068 259.95 220.754 233.699 214.547 239.906C208.34 246.113 234.591 282.428 273.179 321.017C311.768 359.606 348.083 385.856 354.29 379.649C360.497 373.442 334.246 337.128 295.657 298.539Z" fill="url(#paint7_radial_120_296)"/>
</g>
<path d="M362.901 224.52C363.091 224.71 363.345 224.963 363.63 225.248L342.925 245.953C342.64 245.668 342.386 245.415 342.228 245.257C339.474 242.502 336.466 234.999 338.999 232.466C341.532 229.934 348.212 223.254 350.174 221.291C352.106 219.296 359.261 220.879 362.901 224.52Z" fill="white"/>
<path d="M362.933 224.868C363.123 225.058 363.376 225.311 363.661 225.596L342.956 246.301C342.671 246.016 342.418 245.763 342.26 245.605C339.505 242.85 336.498 235.347 339.03 232.815C341.563 230.282 348.243 223.602 350.206 221.639C352.137 219.644 359.292 221.227 362.933 224.868Z" fill="url(#paint8_linear_120_296)"/>
<path opacity="0.2" d="M364.104 226.229C362.635 224.761 356.81 228.205 351.092 233.923C345.375 239.64 341.93 245.466 343.399 246.934C344.868 248.403 350.693 244.959 356.411 239.241C362.128 233.524 365.573 227.698 364.104 226.229Z" fill="url(#paint9_radial_120_296)"/>
<path d="M382.055 243.674C382.245 243.864 382.403 244.022 382.561 244.18C397.473 259.092 404.913 275.776 399.182 281.506C393.452 287.236 376.736 279.765 361.856 264.885C361.666 264.695 361.508 264.537 361.35 264.379C361.35 264.379 347.008 250.037 342.893 245.921L363.598 225.216C368.22 229.839 382.055 243.674 382.055 243.674Z" fill="white"/>
<path d="M381.802 243.927C381.96 244.085 382.15 244.275 382.308 244.433C397.22 259.345 404.628 276.061 398.929 281.759C393.199 287.49 376.483 280.018 361.603 265.138C361.413 264.948 361.255 264.79 361.097 264.632C361.097 264.632 346.755 250.29 342.639 246.175L363.344 225.47C367.967 230.092 381.802 243.927 381.802 243.927Z" fill="url(#paint10_linear_120_296)"/>
<path opacity="0.2" d="M362.047 239.875C351.283 240.761 342.671 243.357 342.861 245.637C343.051 247.916 351.947 249.024 362.711 248.138C373.476 247.251 382.087 244.655 381.897 242.376C381.707 240.096 372.811 238.988 362.047 239.875Z" fill="url(#paint11_radial_120_296)"/>
<path d="M356.918 338.144C324.594 305.82 307.719 288.946 248.264 229.49C301.768 265.708 499.352 223.887 499.352 223.887L524.552 248.707C524.52 248.739 319.655 300.881 356.918 338.144Z" fill="white"/>
<path d="M356.032 339.031C323.708 306.707 306.834 289.832 247.378 230.377C300.882 266.595 498.466 224.773 498.466 224.773L523.508 248.992C523.476 249.024 318.769 301.768 356.032 339.031Z" fill="url(#paint12_linear_120_296)"/>
<mask id="mask1_120_296" style="mask-type:alpha" maskUnits="userSpaceOnUse" x="247" y="224" width="277" height="116">
<path d="M356.032 339.031C323.708 306.707 306.834 289.832 247.378 230.377C300.882 266.595 498.466 224.773 498.466 224.773L523.508 248.992C523.476 249.024 318.769 301.768 356.032 339.031Z" fill="url(#paint13_linear_120_296)"/>
</mask>
<g mask="url(#mask1_120_296)">
<path opacity="0.2" d="M319.497 272.927C280.908 234.338 244.594 208.087 238.387 214.294C232.18 220.501 258.43 256.815 297.019 295.404C335.608 333.993 371.923 360.244 378.13 354.037C384.337 347.83 358.086 311.515 319.497 272.927Z" fill="url(#paint14_radial_120_296)"/>
<path opacity="0.2" d="M509.958 231.896C502.894 224.833 496.147 220.127 494.889 221.386C493.63 222.645 498.335 229.391 505.399 236.455C512.463 243.519 519.21 248.225 520.469 246.966C521.728 245.707 517.022 238.96 509.958 231.896Z" fill="url(#paint15_radial_120_296)"/>
</g>
<path d="M224.013 500.555C224.52 500.048 231.136 505.779 232.466 507.108C233.796 508.438 253.171 528.636 252.633 529.175C252.126 529.681 231.928 510.369 230.567 509.008C229.237 507.678 223.475 501.093 224.013 500.555Z" fill="white"/>
<path d="M224.299 500.84C224.805 500.333 231.327 506.032 232.656 507.362C233.986 508.691 253.171 528.7 252.665 529.206C252.158 529.713 232.15 510.527 230.82 509.198C229.491 507.868 223.792 501.346 224.299 500.84Z" fill="url(#paint16_linear_120_296)"/>
<path d="M499.067 223.855C498.56 224.362 504.291 230.978 505.62 232.308C506.95 233.638 527.149 253.013 527.687 252.475C528.193 251.968 508.881 231.77 507.52 230.408C506.159 229.047 499.574 223.348 499.067 223.855Z" fill="white"/>
<path d="M499.32 224.108C498.814 224.615 504.512 231.137 505.842 232.466C507.172 233.796 527.18 252.981 527.687 252.475C528.193 251.968 509.008 231.96 507.678 230.63C506.349 229.3 499.827 223.602 499.32 224.108Z" fill="url(#paint17_linear_120_296)"/>
<path d="M477.285 477.634C468.579 479.628 448.222 524.616 434.799 544.688C424.731 534.62 424.731 534.62 424.731 534.62C424.731 534.62 437.933 440.498 430.746 431.095C477.285 477.634 430.778 431.127 477.285 477.634Z" fill="white"/>
<path d="M477.918 477.254C469.212 479.249 448.602 523.983 435.21 544.086C425.142 534.019 425.396 534.272 425.396 534.272C425.396 534.272 438.597 440.15 431.411 430.747C477.918 477.254 431.411 430.747 477.918 477.254Z" fill="url(#paint18_linear_120_296)"/>
<mask id="mask2_120_296" style="mask-type:alpha" maskUnits="userSpaceOnUse" x="425" y="430" width="53" height="115">
<path d="M477.918 477.254C469.212 479.249 448.602 523.983 435.21 544.086C425.142 534.019 425.396 534.272 425.396 534.272C425.396 534.272 438.597 440.15 431.411 430.747C477.918 477.254 431.411 430.747 477.918 477.254Z" fill="url(#paint19_linear_120_296)"/>
</mask>
<g mask="url(#mask2_120_296)">
<path opacity="0.2" d="M446.006 478.824C434.672 470.339 427.233 461.126 429.385 458.277C431.538 455.428 442.461 459.955 453.795 468.44C465.128 476.924 472.568 486.137 470.416 488.986C468.294 491.867 457.34 487.309 446.006 478.824Z" fill="url(#paint20_radial_120_296)"/>
</g>
<path d="M476.082 477.001C478.077 468.294 523.064 447.938 543.136 434.514C533.068 424.447 533.068 424.447 533.068 424.447C533.068 424.447 438.946 437.649 429.543 430.462C476.082 477.001 429.575 430.494 476.082 477.001Z" fill="white"/>
<mask id="mask3_120_296" style="mask-type:alpha" maskUnits="userSpaceOnUse" x="429" y="424" width="115" height="54">
<path d="M476.082 477.001C478.077 468.294 523.064 447.938 543.136 434.514C533.068 424.447 533.068 424.447 533.068 424.447C533.068 424.447 438.946 437.649 429.543 430.462C476.082 477.001 429.575 430.494 476.082 477.001Z" fill="white"/>
</mask>
<g mask="url(#mask3_120_296)">
<path d="M475.734 477.665C477.728 468.959 522.463 448.349 542.566 434.957C532.499 424.89 532.752 425.143 532.752 425.143C532.752 425.143 438.63 438.345 429.227 431.158C475.734 477.665 429.227 431.158 475.734 477.665Z" fill="url(#paint21_linear_120_296)"/>
<path opacity="0.2" d="M476.303 445.753C467.819 434.419 458.606 426.979 455.757 429.132C452.907 431.285 457.435 442.207 465.919 453.541C474.404 464.875 483.617 472.315 486.466 470.162C489.315 468.01 484.788 457.087 476.303 445.753Z" fill="url(#paint22_radial_120_296)"/>
</g>
<path d="M200.68 231.422C200.68 231.422 323.707 354.449 401.019 431.76C478.33 509.071 485.991 488.113 485.991 488.113C485.991 488.113 506.95 480.451 429.638 403.14C352.327 325.829 229.3 202.802 229.3 202.802C229.3 202.802 181.907 161.677 170.731 172.852C159.555 184.028 200.68 231.422 200.68 231.422Z" fill="white"/>
<path d="M201.567 230.535C201.567 230.535 324.594 353.562 401.905 430.873C479.217 508.185 486.878 487.226 486.878 487.226C486.878 487.226 507.836 479.565 430.525 402.254C353.214 324.942 230.187 201.915 230.187 201.915C230.187 201.915 182.793 160.79 171.618 171.966C160.442 183.142 201.567 230.535 201.567 230.535Z" fill="url(#paint23_radial_120_296)"/>
<path opacity="0.2" d="M449.235 437.173C425.018 412.957 402.637 396.076 399.245 399.468C395.853 402.86 412.735 425.241 436.951 449.457C461.168 473.674 483.549 490.555 486.941 487.163C490.333 483.771 473.451 461.39 449.235 437.173Z" fill="url(#paint24_radial_120_296)"/>
<path d="M421.375 421.724C422.8 420.299 438.977 434.197 442.27 437.49C445.563 440.783 492.671 490.171 491.247 491.595C489.822 493.02 440.434 445.911 437.141 442.619C433.849 439.326 419.95 423.148 421.375 421.724Z" fill="white"/>
<path d="M422.135 422.357C423.528 420.964 439.548 434.768 442.777 437.997C446.038 441.258 492.671 490.108 491.278 491.501C489.885 492.894 441.004 446.228 437.775 442.999C434.577 439.738 420.774 423.719 422.135 422.357Z" fill="url(#paint25_linear_120_296)"/>
<mask id="mask4_120_296" style="mask-type:alpha" maskUnits="userSpaceOnUse" x="185" y="186" width="19" height="18">
<g opacity="0.5">
<path d="M189.093 189.442C193.905 184.63 200.364 185.959 202.485 188.08C204.606 190.202 200.49 192.544 196.343 196.692C192.164 200.871 189.473 205.208 187.352 203.087C185.231 200.966 183.996 194.602 189.093 189.442Z" fill="url(#paint26_radial_120_296)"/>
</g>
</mask>
<g mask="url(#mask4_120_296)">
<path opacity="0.5" d="M189.093 189.442C193.905 184.63 200.364 185.959 202.485 188.08C204.606 190.202 200.49 192.544 196.343 196.692C192.164 200.871 189.473 205.208 187.352 203.087C185.231 200.966 183.996 194.602 189.093 189.442Z" fill="url(#paint27_radial_120_296)"/>
<path opacity="0.5" d="M190.581 207.202L186.863 203.485C186.863 203.485 185.408 187.477 203.01 187.339C206.727 191.056 206.727 191.056 206.727 191.056C206.727 191.056 192.637 194.914 190.581 207.202Z" fill="white"/>
<path opacity="0.5" d="M190.581 207.202L186.863 203.485C186.863 203.485 185.408 187.477 203.01 187.339C206.727 191.056 206.727 191.056 206.727 191.056C206.727 191.056 192.603 194.949 190.581 207.202Z" fill="url(#paint28_linear_120_296)"/>
</g>
</g>
<defs>
<filter id="filter0_d_120_296" x="136.806" y="170.041" width="434.33" height="461.647" filterUnits="userSpaceOnUse" color-interpolation-filters="sRGB">
<feFlood flood-opacity="0" result="BackgroundImageFix"/>
<feColorMatrix in="SourceAlpha" type="matrix" values="0 0 0 0 0 0 0 0 0 0 0 0 0 0 0 0 0 0 127 0" result="hardAlpha"/>
<feOffset dx="-2" dy="57"/>
<feGaussianBlur stdDeviation="15"/>
<feColorMatrix type="matrix" values="0 0 0 0 0.555208 0 0 0 0 0.752283 0 0 0 0 0.8125 0 0 0 0.3 0"/>
<feBlend mode="normal" in2="BackgroundImageFix" result="effect1_dropShadow_120_296"/>
<feBlend mode="normal" in="SourceGraphic" in2="effect1_dropShadow_120_296" result="shape"/>
</filter>
<linearGradient id="paint0_linear_120_296" x1="236.2" y1="354.824" x2="227.479" y2="346.104" gradientUnits="userSpaceOnUse">
<stop stop-color="#EDF8FE"/>
<stop offset="1" stop-color="white"/>
</linearGradient>
<radialGradient id="paint1_radial_120_296" cx="0" cy="0" r="1" gradientUnits="userSpaceOnUse" gradientTransform="translate(236.868 355.24) rotate(-135) scale(3.76131 14.6215)">
<stop stop-color="#7CAEBE"/>
<stop offset="1" stop-color="#EAF7FE"/>
</radialGradient>
<linearGradient id="paint2_linear_120_296" x1="282.074" y1="400.475" x2="236.124" y2="354.526" gradientUnits="userSpaceOnUse">
<stop stop-color="white"/>
<stop offset="1" stop-color="#EAF7FE"/>
</linearGradient>
<radialGradient id="paint3_radial_120_296" cx="0" cy="0" r="1" gradientUnits="userSpaceOnUse" gradientTransform="translate(244.293 363.931) rotate(-135) scale(13.0416 15.1739)">
<stop stop-color="#7CAEBE"/>
<stop offset="1" stop-color="#EDF8FE"/>
</radialGradient>
<linearGradient id="paint4_linear_120_296" x1="285.703" y1="432.681" x2="138.322" y2="285.301" gradientUnits="userSpaceOnUse">
<stop stop-color="#EFF9FE"/>
<stop offset="1" stop-color="#E1F4FD"/>
</linearGradient>
<linearGradient id="paint5_linear_120_296" x1="285.703" y1="432.681" x2="138.322" y2="285.301" gradientUnits="userSpaceOnUse">
<stop stop-color="#EFF9FE"/>
<stop offset="1" stop-color="#E1F4FD"/>
</linearGradient>
<radialGradient id="paint6_radial_120_296" cx="0" cy="0" r="1" gradientUnits="userSpaceOnUse" gradientTransform="translate(234.367 509.199) rotate(-135) scale(18.0901 3.21942)">
<stop stop-color="#7CAEBE"/>
<stop offset="1" stop-color="#EAF7FE"/>
</radialGradient>
<radialGradient id="paint7_radial_120_296" cx="0" cy="0" r="1" gradientUnits="userSpaceOnUse" gradientTransform="translate(284.427 309.785) rotate(-135) scale(98.824 15.8735)">
<stop stop-color="#7CAEBE"/>
<stop offset="1" stop-color="#EAF7FE"/>
</radialGradient>
<linearGradient id="paint8_linear_120_296" x1="353.306" y1="235.945" x2="344.586" y2="227.224" gradientUnits="userSpaceOnUse">
<stop stop-color="#EDF8FE"/>
<stop offset="1" stop-color="white"/>
</linearGradient>
<radialGradient id="paint9_radial_120_296" cx="0" cy="0" r="1" gradientUnits="userSpaceOnUse" gradientTransform="translate(353.753 236.582) rotate(-135) scale(3.76131 14.6215)">
<stop stop-color="#7CAEBE"/>
<stop offset="1" stop-color="#EAF7FE"/>
</radialGradient>
<linearGradient id="paint10_linear_120_296" x1="398.959" y1="281.754" x2="353.009" y2="235.804" gradientUnits="userSpaceOnUse">
<stop stop-color="white"/>
<stop offset="1" stop-color="#EAF7FE"/>
</linearGradient>
<radialGradient id="paint11_radial_120_296" cx="0" cy="0" r="1" gradientUnits="userSpaceOnUse" gradientTransform="translate(362.381 244.006) rotate(-135) scale(13.0416 15.1739)">
<stop stop-color="#7CAEBE"/>
<stop offset="1" stop-color="#EDF8FE"/>
</radialGradient>
<linearGradient id="paint12_linear_120_296" x1="431.161" y1="285.435" x2="283.78" y2="138.054" gradientUnits="userSpaceOnUse">
<stop stop-color="#EFF9FE"/>
<stop offset="1" stop-color="#E1F4FD"/>
</linearGradient>
<linearGradient id="paint13_linear_120_296" x1="431.161" y1="285.435" x2="283.78" y2="138.054" gradientUnits="userSpaceOnUse">
<stop stop-color="#EFF9FE"/>
<stop offset="1" stop-color="#E1F4FD"/>
</linearGradient>
<radialGradient id="paint14_radial_120_296" cx="0" cy="0" r="1" gradientUnits="userSpaceOnUse" gradientTransform="translate(308.267 284.172) rotate(-135) scale(98.824 15.8735)">
<stop stop-color="#7CAEBE"/>
<stop offset="1" stop-color="#EAF7FE"/>
</radialGradient>
<radialGradient id="paint15_radial_120_296" cx="0" cy="0" r="1" gradientUnits="userSpaceOnUse" gradientTransform="translate(507.68 234.177) rotate(-135) scale(18.0901 3.21943)">
<stop stop-color="#7CAEBE"/>
<stop offset="1" stop-color="#EAF7FE"/>
</radialGradient>
<linearGradient id="paint16_linear_120_296" x1="252.683" y1="529.213" x2="224.307" y2="500.837" gradientUnits="userSpaceOnUse">
<stop stop-color="#EFF9FE"/>
<stop offset="0.1998" stop-color="white"/>
<stop offset="0.4039" stop-color="white"/>
<stop offset="0.6071" stop-color="white"/>
<stop offset="0.807" stop-color="#EEF8FE"/>
<stop offset="1" stop-color="#EEF9FE"/>
</linearGradient>
<linearGradient id="paint17_linear_120_296" x1="527.705" y1="252.482" x2="499.329" y2="224.106" gradientUnits="userSpaceOnUse">
<stop stop-color="#EFF9FE"/>
<stop offset="0.1998" stop-color="white"/>
<stop offset="0.4039" stop-color="white"/>
<stop offset="0.6071" stop-color="white"/>
<stop offset="0.807" stop-color="#EEF8FE"/>
<stop offset="1" stop-color="#EEF9FE"/>
</linearGradient>
<linearGradient id="paint18_linear_120_296" x1="451.3" y1="505.417" x2="392.737" y2="446.854" gradientUnits="userSpaceOnUse">
<stop stop-color="#EFF9FE"/>
<stop offset="1" stop-color="#E1F4FD"/>
</linearGradient>
<linearGradient id="paint19_linear_120_296" x1="451.3" y1="505.417" x2="392.737" y2="446.854" gradientUnits="userSpaceOnUse">
<stop stop-color="#EFF9FE"/>
<stop offset="1" stop-color="#E1F4FD"/>
</linearGradient>
<radialGradient id="paint20_radial_120_296" cx="0" cy="0" r="1" gradientUnits="userSpaceOnUse" gradientTransform="translate(449.904 473.634) rotate(-135) scale(25.3839 7.37777)">
<stop stop-color="#7CAEBE"/>
<stop offset="1" stop-color="#EAF7FE"/>
</radialGradient>
<linearGradient id="paint21_linear_120_296" x1="503.896" y1="451.033" x2="445.332" y2="392.469" gradientUnits="userSpaceOnUse">
<stop stop-color="#EFF9FE"/>
<stop offset="1" stop-color="#E1F4FD"/>
</linearGradient>
<radialGradient id="paint22_radial_120_296" cx="0" cy="0" r="1" gradientUnits="userSpaceOnUse" gradientTransform="translate(471.114 449.649) rotate(-135) scale(25.3825 7.37777)">
<stop stop-color="#7CAEBE"/>
<stop offset="1" stop-color="#EAF7FE"/>
</radialGradient>
<radialGradient id="paint23_radial_120_296" cx="0" cy="0" r="1" gradientUnits="userSpaceOnUse" gradientTransform="translate(392.231 389.888) rotate(-135) scale(322.968 22.1353)">
<stop stop-color="#EFF9FE"/>
<stop offset="1" stop-color="#E1F4FD"/>
</radialGradient>
<radialGradient id="paint24_radial_120_296" cx="0" cy="0" r="1" gradientUnits="userSpaceOnUse" gradientTransform="translate(443.098 443.32) rotate(-135) scale(62.0169 8.67454)">
<stop stop-color="#7CAEBE"/>
<stop offset="1" stop-color="#EAF7FE"/>
</radialGradient>
<linearGradient id="paint25_linear_120_296" x1="491.325" y1="491.516" x2="422.158" y2="422.349" gradientUnits="userSpaceOnUse">
<stop stop-color="#EFF9FE"/>
<stop offset="0.1998" stop-color="white"/>
<stop offset="0.4039" stop-color="white"/>
<stop offset="0.6071" stop-color="white"/>
<stop offset="0.807" stop-color="#EEF8FE"/>
<stop offset="1" stop-color="#EEF9FE"/>
</linearGradient>
<radialGradient id="paint26_radial_120_296" cx="0" cy="0" r="1" gradientUnits="userSpaceOnUse" gradientTransform="translate(193.177 193.84) rotate(-135) scale(5.35985 10.4784)">
<stop stop-color="white"/>
<stop offset="0.1205" stop-color="#FBFBFB"/>
<stop offset="0.2454" stop-color="#EEEEEE"/>
<stop offset="0.3724" stop-color="#DADADA"/>
<stop offset="0.5008" stop-color="#BCBCBC"/>
<stop offset="0.6304" stop-color="#979797"/>
<stop offset="0.761" stop-color="#696969"/>
<stop offset="0.8898" stop-color="#343434"/>
<stop offset="1"/>
</radialGradient>
<radialGradient id="paint27_radial_120_296" cx="0" cy="0" r="1" gradientUnits="userSpaceOnUse" gradientTransform="translate(192.652 193.317) rotate(-135) scale(5.25697 10.642)">
<stop stop-color="#7CAEBE"/>
<stop offset="1" stop-color="#EAF7FE"/>
</radialGradient>
<linearGradient id="paint28_linear_120_296" x1="212.724" y1="191.524" x2="184.783" y2="200.205" gradientUnits="userSpaceOnUse">
<stop stop-color="#828C93"/>
<stop offset="0.0829433" stop-color="#89939A"/>
<stop offset="0.2223" stop-color="#9DA8AE"/>
<stop offset="0.4" stop-color="#BFCAD0"/>
<stop offset="0.5113" stop-color="#D8E2E7"/>
<stop offset="0.6233" stop-color="#A8B3B9"/>
<stop offset="0.7541" stop-color="#798389"/>
<stop offset="0.865" stop-color="#586066"/>
<stop offset="0.9504" stop-color="#41474C"/>
<stop offset="1" stop-color="#373D42"/>
</linearGradient>
</defs>
</svg>
