<svg width="107" height="82" viewBox="0 0 107 82" fill="none" xmlns="http://www.w3.org/2000/svg">
<g filter="url(#filter0_d_120_349)">
<path d="M42.5198 57.1505C37.8955 57.1505 33.5025 55.1851 30.3811 51.7169L30.2076 51.5435L29.9764 51.7169C27.6643 53.451 24.8319 54.3759 21.9417 54.3759C14.5429 54.3759 8.47351 48.3065 8.47351 40.9077C8.47351 35.0695 12.1729 29.9828 17.7221 28.1331L17.9533 28.0753V27.8441C17.9533 27.6128 17.9533 27.3816 17.9533 27.1504C17.9533 17.3238 25.9302 9.34692 35.7568 9.34692C41.3637 9.34692 46.566 11.9481 49.9765 16.399L50.1499 16.6302L50.3811 16.4568C52.8088 14.4336 55.9302 13.3354 59.1094 13.3354C66.0458 13.3354 71.884 18.4799 72.8089 25.3585V25.5319L72.9823 25.5897C78.3002 27.6707 81.7684 32.6996 81.7684 38.4799C81.7684 46.11 75.5834 52.295 67.9534 52.295C64.0805 52.295 60.3811 50.6765 57.7221 47.7863L57.4331 47.4395L57.2597 47.8441C54.6007 53.451 48.8204 57.1505 42.5198 57.1505Z" fill="url(#paint0_linear_120_349)"/>
<path d="M35.7569 9.57804C41.3061 9.57804 46.3928 12.1214 49.7454 16.5145L50.0922 16.9769L50.5546 16.5723C52.9824 14.6069 55.9882 13.5087 59.1096 13.5087C65.8726 13.5087 71.6529 18.5376 72.52 25.2428L72.5778 25.5896L72.9246 25.7052C78.1269 27.7283 81.5373 32.6995 81.5373 38.3064C81.5373 45.7631 75.468 51.8324 68.0113 51.8324C64.1963 51.8324 60.5547 50.2139 58.0113 47.4394L57.4333 46.8035L57.0864 47.6128C54.4853 53.2197 48.7627 56.8035 42.6355 56.8035C38.1269 56.8035 33.7916 54.8382 30.728 51.4856L30.3812 51.081L29.9766 51.37C27.6644 53.0463 24.9477 53.9712 22.1153 53.9712C14.832 53.9712 8.93608 48.0752 8.93608 40.792C8.93608 35.1272 12.5777 30.0983 17.9534 28.3064L18.3581 28.1908V27.7283C18.3581 27.4971 18.3581 27.2659 18.3581 27.0347C18.2424 17.4393 26.1037 9.57804 35.7569 9.57804ZM35.7569 9C25.7569 9 17.6644 17.0925 17.6644 27.0925C17.6644 27.3237 17.6644 27.5549 17.6644 27.7862C12.1731 29.5781 8.24243 34.7804 8.24243 40.8498C8.24243 48.422 14.4274 54.607 21.9997 54.607C25.0633 54.607 27.8956 53.5665 30.2078 51.8902C33.2136 55.3006 37.6644 57.3816 42.5199 57.3816C49.1673 57.3816 54.8321 53.5087 57.4911 47.844C60.0922 50.6764 63.7916 52.4683 67.8957 52.4683C75.6992 52.4683 81.9998 46.1677 81.9998 38.3642C81.9998 32.4104 78.3003 27.2659 73.0402 25.2428C72.1154 18.3064 66.2194 12.9884 59.0518 12.9884C55.6992 12.9884 52.5778 14.2023 50.15 16.1676C46.8552 11.8324 41.6529 9 35.7569 9Z" fill="url(#paint1_linear_120_349)"/>
</g>
<defs>
<filter id="filter0_d_120_349" x="0.234408" y="0.991977" width="105.789" height="80.4137" filterUnits="userSpaceOnUse" color-interpolation-filters="sRGB">
<feFlood flood-opacity="0" result="BackgroundImageFix"/>
<feColorMatrix in="SourceAlpha" type="matrix" values="0 0 0 0 0 0 0 0 0 0 0 0 0 0 0 0 0 0 127 0" result="hardAlpha"/>
<feOffset dx="8.00802" dy="8.00802"/>
<feGaussianBlur stdDeviation="8.00802"/>
<feColorMatrix type="matrix" values="0 0 0 0 0.555208 0 0 0 0 0.752283 0 0 0 0 0.8125 0 0 0 0.5 0"/>
<feBlend mode="normal" in2="BackgroundImageFix" result="effect1_dropShadow_120_349"/>
<feBlend mode="normal" in="SourceGraphic" in2="effect1_dropShadow_120_349" result="shape"/>
</filter>
<linearGradient id="paint0_linear_120_349" x1="22.3714" y1="33.2455" x2="95.6702" y2="33.2455" gradientUnits="userSpaceOnUse">
<stop stop-color="white"/>
<stop offset="1" stop-color="#E1F4FD"/>
</linearGradient>
<linearGradient id="paint1_linear_120_349" x1="22.228" y1="33.1876" x2="95.9892" y2="33.1876" gradientUnits="userSpaceOnUse">
<stop stop-color="white"/>
<stop offset="1" stop-color="#E1F4FD"/>
</linearGradient>
</defs>
</svg>
