<svg width="120" height="90" viewBox="0 0 120 90" fill="none" xmlns="http://www.w3.org/2000/svg">
<g filter="url(#filter0_d_130_322)">
<path d="M49.0157 65.2114C43.6172 65.2114 38.4887 62.917 34.8447 58.8682L34.6423 58.6657L34.3724 58.8682C31.6731 60.8926 28.3666 61.9723 24.9925 61.9723C16.355 61.9723 9.26953 54.8868 9.26953 46.2493C9.26953 39.4337 13.5883 33.4954 20.0665 31.336L20.3364 31.2686V30.9986C20.3364 30.7287 20.3364 30.4588 20.3364 30.1889C20.3364 18.7171 29.6487 9.40479 41.1205 9.40479C47.6661 9.40479 53.7394 12.4414 57.7207 17.6374L57.9232 17.9074L58.1931 17.7049C61.0273 15.3431 64.6712 14.061 68.3827 14.061C76.4804 14.061 83.2959 20.0667 84.3756 28.097V28.2994L84.5781 28.3669C90.7863 30.7962 94.8351 36.667 94.8351 43.4151C94.8351 52.3226 87.6147 59.543 78.7072 59.543C74.186 59.543 69.8673 57.6535 66.7631 54.2795L66.4257 53.8746L66.2233 54.347C63.1192 60.8926 56.3711 65.2114 49.0157 65.2114Z" fill="url(#paint0_linear_130_322)"/>
<path d="M41.1209 9.67481C47.599 9.67481 53.5373 12.644 57.4512 17.7725L57.8561 18.3123L58.3959 17.84C61.2301 15.5456 64.7391 14.2635 68.3831 14.2635C76.2783 14.2635 83.0264 20.1343 84.0386 27.9621L84.1061 28.367L84.511 28.5019C90.5843 30.8638 94.5656 36.6671 94.5656 43.2127C94.5656 51.9178 87.4801 59.0033 78.7751 59.0033C74.3214 59.0033 70.0701 57.1138 67.1009 53.8747L66.4261 53.1324L66.0213 54.0772C62.9846 60.6228 56.304 64.8066 49.1511 64.8066C43.8876 64.8066 38.8265 62.5122 35.25 58.5984L34.8451 58.126L34.3728 58.4634C31.6735 60.4203 28.5019 61.5 25.1954 61.5C16.6928 61.5 9.80977 54.617 9.80977 46.1144C9.80977 39.5013 14.0611 33.6305 20.3368 31.5386L20.8091 31.4036V30.8638C20.8091 30.5938 20.8091 30.3239 20.8091 30.054C20.6742 18.8522 29.8516 9.67481 41.1209 9.67481ZM41.1209 9C29.4467 9 19.9994 18.4473 19.9994 30.1215C19.9994 30.3914 19.9994 30.6613 19.9994 30.9312C13.5887 33.0231 9 39.0964 9 46.1819C9 55.0219 16.2204 62.2423 25.0604 62.2423C28.6369 62.2423 31.9435 61.0277 34.6427 59.0707C38.1517 63.0521 43.3477 65.4814 49.0161 65.4814C56.7764 65.4814 63.3895 60.9602 66.4936 54.3471C69.5303 57.6536 73.849 59.7455 78.6402 59.7455C87.7501 59.7455 95.1055 52.3901 95.1055 43.2802C95.1055 36.3297 90.7867 30.3239 84.646 27.9621C83.5663 19.8644 76.6832 13.6562 68.3156 13.6562C64.4017 13.6562 60.7578 15.0733 57.9236 17.3676C54.0772 12.3066 48.0039 9 41.1209 9Z" fill="url(#paint1_linear_130_322)"/>
</g>
<defs>
<filter id="filter0_d_130_322" x="0.991977" y="0.991977" width="118.138" height="88.5135" filterUnits="userSpaceOnUse" color-interpolation-filters="sRGB">
<feFlood flood-opacity="0" result="BackgroundImageFix"/>
<feColorMatrix in="SourceAlpha" type="matrix" values="0 0 0 0 0 0 0 0 0 0 0 0 0 0 0 0 0 0 127 0" result="hardAlpha"/>
<feOffset dx="8.00802" dy="8.00802"/>
<feGaussianBlur stdDeviation="8.00802"/>
<feColorMatrix type="matrix" values="0 0 0 0 0.555208 0 0 0 0 0.752283 0 0 0 0 0.8125 0 0 0 0.5 0"/>
<feBlend mode="normal" in2="BackgroundImageFix" result="effect1_dropShadow_130_322"/>
<feBlend mode="normal" in="SourceGraphic" in2="effect1_dropShadow_130_322" result="shape"/>
</filter>
<linearGradient id="paint0_linear_130_322" x1="25.4941" y1="37.3044" x2="111.064" y2="37.3044" gradientUnits="userSpaceOnUse">
<stop stop-color="white"/>
<stop offset="1" stop-color="#E1F4FD"/>
</linearGradient>
<linearGradient id="paint1_linear_130_322" x1="25.3269" y1="37.2369" x2="111.437" y2="37.2369" gradientUnits="userSpaceOnUse">
<stop stop-color="white"/>
<stop offset="1" stop-color="#E1F4FD"/>
</linearGradient>
</defs>
</svg>
