<svg width="105" height="80" viewBox="0 0 105 80" fill="none" xmlns="http://www.w3.org/2000/svg">
<g filter="url(#filter0_d_130_319)">
<path d="M41.7735 55.0165C37.3221 55.0165 33.0933 53.1246 30.0886 49.7861L29.9216 49.6191L29.6991 49.7861C27.4734 51.4553 24.7469 52.3456 21.9647 52.3456C14.8425 52.3456 9 46.5031 9 39.3809C9 33.761 12.5611 28.8644 17.9028 27.0839L18.1254 27.0282V26.8056C18.1254 26.5831 18.1254 26.3605 18.1254 26.1379C18.1254 16.6787 25.8041 9 35.2633 9C40.6607 9 45.6685 11.5039 48.9514 15.7884L49.1183 16.011L49.3409 15.844C51.6779 13.8966 54.6826 12.8393 57.7429 12.8393C64.4201 12.8393 70.04 17.7915 70.9302 24.413V24.5799L71.0972 24.6356C76.2163 26.6387 79.5548 31.4796 79.5548 37.0439C79.5548 44.3887 73.6011 50.3425 66.2563 50.3425C62.5282 50.3425 58.9671 48.7845 56.4075 46.0024L56.1293 45.6685L55.9624 46.058C53.4028 51.4553 47.8386 55.0165 41.7735 55.0165Z" fill="url(#paint0_linear_130_319)"/>
<path d="M35.4859 9.55643C40.8276 9.55643 45.7241 12.0047 48.9514 16.2335L49.2853 16.6787L49.7304 16.2892C52.0674 14.3973 54.9608 13.3401 57.9655 13.3401C64.4757 13.3401 70.04 18.181 70.8746 24.6356L70.9302 24.9694L71.2641 25.0807C76.2719 27.0282 79.5549 31.8135 79.5549 37.2108C79.5549 44.3887 73.7124 50.2312 66.5345 50.2312C62.8621 50.2312 59.3566 48.6732 56.9083 46.0023L56.3519 45.3903L56.018 46.1693C53.5141 51.5666 48.0055 55.0165 42.1074 55.0165C37.7672 55.0165 33.594 53.1246 30.645 49.8973L30.3111 49.5078L29.9216 49.786C27.6959 51.3997 25.0807 52.29 22.3542 52.29C15.3433 52.29 9.66771 46.6144 9.66771 39.6034C9.66771 34.1505 13.1732 29.3096 18.348 27.5846L18.7375 27.4734V27.0282C18.7375 26.8056 18.7375 26.5831 18.7375 26.3605C18.6262 17.1238 26.1936 9.55643 35.4859 9.55643ZM35.4859 9C25.8597 9 18.0697 16.79 18.0697 26.4161C18.0697 26.6387 18.0697 26.8613 18.0697 27.0839C12.7837 28.8088 9 33.8166 9 39.6591C9 46.9483 14.9538 52.902 22.2429 52.902C25.192 52.902 27.9185 51.9005 30.1442 50.2868C33.0376 53.5697 37.3221 55.5729 41.9961 55.5729C48.395 55.5729 53.848 51.8448 56.4075 46.3918C58.9114 49.1183 62.4726 50.8433 66.4232 50.8433C73.9349 50.8433 80 44.7782 80 37.2665C80 31.5353 76.4389 26.5831 71.3754 24.6356C70.4851 17.9585 64.8096 12.8393 57.9099 12.8393C54.6826 12.8393 51.6779 14.0078 49.3409 15.8997C46.1693 11.7265 41.1614 9 35.4859 9Z" fill="url(#paint1_linear_130_319)"/>
</g>
<defs>
<filter id="filter0_d_130_319" x="0.991977" y="0.991977" width="103.032" height="78.6051" filterUnits="userSpaceOnUse" color-interpolation-filters="sRGB">
<feFlood flood-opacity="0" result="BackgroundImageFix"/>
<feColorMatrix in="SourceAlpha" type="matrix" values="0 0 0 0 0 0 0 0 0 0 0 0 0 0 0 0 0 0 127 0" result="hardAlpha"/>
<feOffset dx="8.00802" dy="8.00802"/>
<feGaussianBlur stdDeviation="8.00802"/>
<feColorMatrix type="matrix" values="0 0 0 0 0.555208 0 0 0 0 0.752283 0 0 0 0 0.8125 0 0 0 0.5 0"/>
<feBlend mode="normal" in2="BackgroundImageFix" result="effect1_dropShadow_130_319"/>
<feBlend mode="normal" in="SourceGraphic" in2="effect1_dropShadow_130_319" result="shape"/>
</filter>
<linearGradient id="paint0_linear_130_319" x1="22.3783" y1="32.0052" x2="92.9369" y2="32.0052" gradientUnits="userSpaceOnUse">
<stop stop-color="white"/>
<stop offset="1" stop-color="#E1F4FD"/>
</linearGradient>
<linearGradient id="paint1_linear_130_319" x1="22.4627" y1="32.2833" x2="93.4665" y2="32.2833" gradientUnits="userSpaceOnUse">
<stop stop-color="white"/>
<stop offset="1" stop-color="#E1F4FD"/>
</linearGradient>
</defs>
</svg>
