<svg width="361" height="711" viewBox="0 0 361 711" fill="none" xmlns="http://www.w3.org/2000/svg">
<g filter="url(#filter0_d_123_997)">
<path d="M306.935 56.3132L306.935 654.709C306.935 662.882 300.325 669.499 292.164 669.499L42.2711 669.5C34.1104 669.5 27.5 662.882 27.5 654.709L27.5 56.2899C27.5 48.1173 34.1104 41.4995 42.2711 41.4995L292.186 41.4995C300.325 41.522 306.935 48.1404 306.935 56.3132Z" fill="url(#paint0_linear_123_997)" stroke="#D3F0F9"/>
<path d="M74.3474 41.0228L42.2711 41.0228C33.8336 41.0228 27 47.8651 27 56.3132L27 654.709C27 663.157 33.8337 670 42.2711 670L74.3475 670L74.3474 41.0228Z" fill="#D7EEF5"/>
<path d="M41.8064 208.077L41.8064 210.241L45.5254 210.241L45.5254 208.077L41.8064 208.077Z" fill="#D7EEF5"/>
<path d="M35.1355 208.077L35.1355 210.241L38.8545 210.241L38.8545 208.077L35.1355 208.077Z" fill="#D7EEF5"/>
<path d="M28.4875 208.077L28.4875 210.241L32.2065 210.241L32.2065 208.077L28.4875 208.077Z" fill="#D7EEF5"/>
<path d="M61.842 208.077L61.842 210.241L65.561 210.241L65.561 208.077L61.842 208.077Z" fill="#D7EEF5"/>
<path d="M55.1714 208.077L55.1714 210.241L58.8904 210.241L58.8904 208.077L55.1714 208.077Z" fill="#D7EEF5"/>
<path d="M48.5238 208.077L48.5238 210.241L52.2428 210.241L52.2428 208.077L48.5238 208.077Z" fill="#D7EEF5"/>
<path d="M81.8787 208.077L81.8787 210.241L85.5977 210.241L85.5977 208.077L81.8787 208.077Z" fill="#D7EEF5"/>
<path d="M75.2078 208.077L75.2078 210.241L78.9268 210.241L78.9268 208.077L75.2078 208.077Z" fill="#D7EEF5"/>
<path d="M68.5603 208.077L68.5603 210.241L72.2793 210.241L72.2793 208.077L68.5603 208.077Z" fill="#D7EEF5"/>
<path d="M101.915 208.077L101.915 210.241L105.634 210.241L105.634 208.077L101.915 208.077Z" fill="#D7EEF5"/>
<path d="M95.2439 208.077L95.2439 210.241L98.9629 210.241L98.9629 208.077L95.2439 208.077Z" fill="#D7EEF5"/>
<path d="M88.5961 208.077L88.5961 210.241L92.3151 210.241L92.3151 208.077L88.5961 208.077Z" fill="#D7EEF5"/>
<path d="M121.951 208.077L121.951 210.241L125.67 210.241L125.67 208.077L121.951 208.077Z" fill="#D7EEF5"/>
<path d="M115.28 208.077L115.28 210.241L118.999 210.241L118.999 208.077L115.28 208.077Z" fill="#D7EEF5"/>
<path d="M108.632 208.077L108.632 210.241L112.351 210.241L112.351 208.077L108.632 208.077Z" fill="#D7EEF5"/>
<path d="M141.964 208.077L141.964 210.241L145.683 210.241L145.683 208.077L141.964 208.077Z" fill="#D7EEF5"/>
<path d="M135.316 208.077L135.316 210.241L139.035 210.241L139.035 208.077L135.316 208.077Z" fill="#D7EEF5"/>
<path d="M128.668 208.077L128.668 210.241L132.387 210.241L132.387 208.077L128.668 208.077Z" fill="#D7EEF5"/>
<path d="M162 208.077L162 210.241L165.719 210.241L165.719 208.077L162 208.077Z" fill="#D7EEF5"/>
<path d="M155.329 208.077L155.329 210.241L159.048 210.241L159.048 208.077L155.329 208.077Z" fill="#D7EEF5"/>
<path d="M148.681 208.077L148.681 210.241L152.4 210.241L152.4 208.077L148.681 208.077Z" fill="#D7EEF5"/>
<path d="M182.036 208.077L182.036 210.241L185.755 210.241L185.755 208.077L182.036 208.077Z" fill="#D7EEF5"/>
<path d="M175.365 208.077L175.365 210.241L179.084 210.241L179.084 208.077L175.365 208.077Z" fill="#D7EEF5"/>
<path d="M168.717 208.077L168.717 210.241L172.436 210.241L172.436 208.077L168.717 208.077Z" fill="#D7EEF5"/>
<path d="M202.072 208.077L202.072 210.241L205.791 210.241L205.791 208.077L202.072 208.077Z" fill="#D7EEF5"/>
<path d="M195.401 208.077L195.401 210.241L199.12 210.241L199.12 208.077L195.401 208.077Z" fill="#D7EEF5"/>
<path d="M188.753 208.077L188.753 210.241L192.472 210.241L192.472 208.077L188.753 208.077Z" fill="#D7EEF5"/>
<path d="M222.108 208.077L222.108 210.241L225.827 210.241L225.827 208.077L222.108 208.077Z" fill="#D7EEF5"/>
<path d="M215.437 208.077L215.437 210.241L219.156 210.241L219.156 208.077L215.437 208.077Z" fill="#D7EEF5"/>
<path d="M208.789 208.077L208.789 210.241L212.508 210.241L212.508 208.077L208.789 208.077Z" fill="#D7EEF5"/>
<path d="M242.144 208.077L242.144 210.241L245.863 210.241L245.863 208.077L242.144 208.077Z" fill="#D7EEF5"/>
<path d="M235.473 208.077L235.473 210.241L239.192 210.241L239.192 208.077L235.473 208.077Z" fill="#D7EEF5"/>
<path d="M228.825 208.077L228.825 210.241L232.544 210.241L232.544 208.077L228.825 208.077Z" fill="#D7EEF5"/>
<path d="M262.157 208.077L262.157 210.241L265.876 210.241L265.876 208.077L262.157 208.077Z" fill="#D7EEF5"/>
<path d="M255.486 208.077L255.486 210.241L259.205 210.241L259.205 208.077L255.486 208.077Z" fill="#D7EEF5"/>
<path d="M248.838 208.077L248.838 210.241L252.557 210.241L252.557 208.077L248.838 208.077Z" fill="#D7EEF5"/>
<path d="M282.193 208.077L282.193 210.241L285.912 210.241L285.912 208.077L282.193 208.077Z" fill="#D7EEF5"/>
<path d="M275.522 208.077L275.522 210.241L279.241 210.241L279.241 208.077L275.522 208.077Z" fill="#D7EEF5"/>
<path d="M268.874 208.077L268.874 210.241L272.593 210.241L272.593 208.077L268.874 208.077Z" fill="#D7EEF5"/>
<path d="M302.229 208.077L302.229 210.241L305.948 210.241L305.948 208.077L302.229 208.077Z" fill="#D7EEF5"/>
<path d="M295.558 208.077L295.558 210.241L299.277 210.241L299.277 208.077L295.558 208.077Z" fill="#D7EEF5"/>
<path d="M288.91 208.077L288.91 210.241L292.629 210.241L292.629 208.077L288.91 208.077Z" fill="#D7EEF5"/>
<path d="M65.4454 626.805L65.4454 623.872L61.587 621.359L61.587 619.241C61.587 619.101 61.4708 618.962 61.3081 618.962L60.2156 618.962C60.0761 618.962 59.9367 619.078 59.9367 619.241L59.9367 620.288L59.0767 619.73L59.0767 618.124C59.0767 617.984 58.9605 617.844 58.7977 617.844L57.7053 617.844C57.5658 617.844 57.4264 617.961 57.4264 618.124L57.4264 618.682L53.2193 615.936L53.2193 608.209L50.4997 604.486L48.0824 608.209L48.0824 615.936L43.8753 618.682L43.8753 618.124C43.8753 617.984 43.7591 617.844 43.5964 617.844L42.5039 617.844C42.3644 617.844 42.225 617.961 42.225 618.124L42.225 619.73L41.365 620.288L41.365 619.241C41.365 619.101 41.2487 618.962 41.086 618.962L39.9936 618.962C39.8541 618.962 39.7147 619.078 39.7147 619.241L39.7147 621.359L35.8562 623.872L35.8562 626.805L48.0592 621.545L48.8494 632.134L44.4331 633.903L44.4331 636.905L50.616 634.392L56.7988 636.905L56.7988 633.903L52.3825 632.134L53.1728 621.824L65.4454 626.805Z" fill="white"/>
<path d="M36.8558 628.504L36.391 645.028L35.9028 628.504L36.8558 628.504Z" fill="#E1F3F7"/>
<path d="M65.4453 628.504L64.9572 645.028L64.4923 628.504L65.4453 628.504Z" fill="#E1F3F7"/>
<path d="M56.8685 640.28L56.4036 656.781L55.9155 640.28L56.8685 640.28Z" fill="#E1F3F7"/>
<path d="M45.4556 640.28L44.9675 656.781L44.4794 640.28L45.4556 640.28Z" fill="#E1F3F7"/>
<path d="M189.868 582.41C196.759 582.41 201.647 584.013 204.531 587.218C207.416 590.342 208.858 595.55 208.858 602.842L208.858 626.398L124.727 626.398L124.727 604.284C124.727 597.073 126.209 591.624 129.174 587.939C132.059 584.253 136.826 582.41 143.476 582.41L189.868 582.41ZM142.395 592.866C139.75 592.866 137.667 593.668 136.145 595.27C134.542 596.873 133.741 598.996 133.741 601.64L133.741 615.942L199.844 615.942L199.844 601.76C199.844 598.715 199.163 596.472 197.801 595.03C196.358 593.587 194.115 592.866 191.07 592.866L142.395 592.866ZM208.858 544.09L176.648 557.792L208.858 572.214L208.858 583.511L165.35 563.08L124.727 581.709L124.727 570.291L153.692 557.671L124.727 544.691L124.727 533.514L165.23 552.503L208.858 532.312L208.858 544.09ZM189.868 486.63C196.759 486.63 201.647 488.232 204.531 491.437C207.416 494.562 208.858 499.77 208.858 507.061L208.858 529.897L124.727 529.897L124.727 508.504C124.727 501.373 126.169 496.165 129.054 492.879C131.938 489.514 136.746 487.832 143.476 487.832L150.327 487.832C156.496 487.832 161.144 490.035 164.269 494.442C167.153 489.234 172.081 486.63 179.051 486.63L189.868 486.63ZM142.395 498.288C139.35 498.288 137.146 499.009 135.784 500.451C134.422 501.813 133.741 504.017 133.741 507.061L133.741 519.441L160.302 519.441L160.302 507.061C160.302 504.578 159.501 502.494 157.899 500.812C156.296 499.129 154.173 498.288 151.529 498.288L142.395 498.288ZM177.97 497.086C175.326 497.086 173.242 497.887 171.72 499.49C170.118 501.092 169.316 503.216 169.316 505.86L169.316 519.441L199.844 519.441L199.844 505.98C199.844 502.935 199.163 500.692 197.801 499.249C196.358 497.807 194.115 497.086 191.07 497.086L177.97 497.086Z" fill="#D7EEF5"/>
<path d="M206.187 339.139L167.968 357.888L175.179 362.215L206.187 362.215L206.187 372.671L122.057 372.671L122.057 362.215L158.353 362.215L122.057 339.98L122.057 328.562L158.834 351.398L206.187 327.36L206.187 339.139ZM187.198 282.268C194.088 282.268 198.976 283.87 201.861 287.075C204.745 290.2 206.187 295.408 206.187 302.7L206.187 325.535L122.057 325.535L122.057 304.142C122.057 297.011 123.499 291.803 126.383 288.518C129.268 285.152 134.075 283.47 140.806 283.47L147.656 283.47C153.826 283.47 158.473 285.673 161.598 290.08C164.482 284.872 169.41 282.268 176.381 282.268L187.198 282.268ZM139.724 293.926C136.679 293.926 134.476 294.647 133.114 296.089C131.752 297.452 131.071 299.655 131.071 302.7L131.071 315.079L157.632 315.079L157.632 302.7C157.632 300.216 156.831 298.133 155.228 296.45C153.626 294.767 151.502 293.926 148.858 293.926L139.724 293.926ZM175.299 292.724C172.655 292.724 170.572 293.525 169.05 295.128C167.447 296.73 166.646 298.854 166.646 301.498L166.646 315.079L197.173 315.079L197.173 301.618C197.173 298.573 196.492 296.33 195.13 294.888C193.688 293.445 191.444 292.724 188.4 292.724L175.299 292.724ZM154.507 232.928C160.997 232.928 165.805 234.65 168.929 238.096C171.974 241.541 173.496 246.629 173.496 253.359L173.496 264.657L206.187 264.657L206.187 275.113L122.057 275.113L122.057 253.6C122.057 246.789 123.579 241.661 126.624 238.216C129.588 234.69 134.316 232.928 140.806 232.928L154.507 232.928ZM139.724 243.384C136.679 243.384 134.476 244.105 133.114 245.547C131.752 246.909 131.071 249.113 131.071 252.157L131.071 264.657L164.482 264.657L164.482 252.157C164.482 249.113 163.801 246.909 162.439 245.547C160.997 244.105 158.754 243.384 155.709 243.384L139.724 243.384Z" fill="#D7EEF5"/>
<path d="M186.042 432.966L186.042 429.361L181.29 426.255L181.29 423.645C181.29 423.463 181.145 423.318 180.963 423.318L179.593 423.318C179.412 423.318 179.266 423.463 179.266 423.645L179.266 424.932L178.212 424.252L178.212 422.262C178.212 422.08 178.066 421.934 177.884 421.934L176.527 421.934C176.345 421.934 176.2 422.08 176.2 422.262L176.2 422.941L171 419.556L171 410.017L167.655 405.417L164.661 410.017L164.661 419.556L159.461 422.941L159.461 422.262C159.461 422.08 159.316 421.934 159.134 421.934L157.776 421.934C157.594 421.934 157.449 422.08 157.449 422.262L157.449 424.252L156.394 424.932L156.394 423.645C156.394 423.463 156.249 423.318 156.067 423.318L154.71 423.318C154.528 423.318 154.382 423.463 154.382 423.645L154.382 426.255L149.619 429.361L149.619 432.966L164.673 426.461L165.655 439.519L160.2 441.704L160.2 445.417L167.836 442.31L175.472 445.417L175.472 441.704L170.018 439.519L171 426.813L186.042 432.966Z" fill="#ADD7E5"/>
<path d="M203.466 441.539L203.466 434.627L194.355 428.669L194.355 423.665C194.355 423.316 194.076 423.037 193.727 423.037L191.101 423.037C190.752 423.037 190.473 423.316 190.473 423.665L190.473 426.132L188.451 424.829L188.451 421.012C188.451 420.663 188.172 420.384 187.823 420.384L185.22 420.384C184.871 420.384 184.592 420.663 184.592 421.012L184.592 422.316L174.621 415.822L174.621 397.53L168.206 388.709L162.464 397.53L162.464 415.822L152.493 422.316L152.493 421.012C152.493 420.663 152.214 420.384 151.865 420.384L149.262 420.384C148.913 420.384 148.634 420.663 148.634 421.012L148.634 424.829L146.612 426.132L146.612 423.665C146.612 423.316 146.333 423.037 145.985 423.037L143.381 423.037C143.033 423.037 142.754 423.316 142.754 423.665L142.754 428.669L133.619 434.627L133.619 441.539L162.488 429.065L164.37 454.107L153.911 458.296L153.911 465.417L168.554 459.459L183.198 465.417L183.198 458.296L172.738 454.107L174.621 429.74L203.466 441.539Z" fill="#D7EEF5"/>
<path d="M55.125 512.674L59.611 514.489L59.611 518.376L41.7366 510.998L41.7366 506.227L59.611 498.501L59.611 502.574L55.125 504.482L55.125 512.674V512.674ZM52.0568 505.553C47.687 507.391 45.5253 508.275 44.2004 508.694L44.2004 508.718C45.4788 509.113 48.3145 510.137 52.0568 511.65L52.0568 505.553Z" fill="white"/>
<path d="M41.7366 492.217L59.611 492.217L59.611 495.987L41.7366 495.987L41.7366 492.217Z" fill="white"/>
<path d="M52.4519 483.606L59.611 483.606L59.611 487.33L41.7366 487.33L41.7366 477.974C41.7366 473.994 43.6658 471.597 46.7572 471.597C49.0119 471.597 50.4297 472.854 50.9876 474.762C51.2897 473.878 52.0568 472.063 55.2412 472.063L56.1012 472.063C57.3796 472.063 58.7975 472.086 59.611 471.853L59.611 475.716C58.8207 475.996 57.6818 476.019 55.892 476.019L55.3109 476.019C53.2422 476.019 52.4519 476.81 52.4519 479.58L52.4519 483.606V483.606ZM49.5929 483.606L49.5929 478.835C49.5929 476.508 48.7562 475.437 47.0594 475.437C45.4788 475.437 44.6188 476.508 44.6188 478.765L44.6188 483.606L49.5929 483.606V483.606Z" fill="white"/>
<path d="M44.7583 456.284L44.7583 462.753L41.7366 462.753L41.7366 446.067L44.7815 446.067L44.7815 452.513L59.6342 452.513L59.6342 456.284L44.7583 456.284Z" fill="white"/>
<path d="M41.7366 439.48L59.611 439.48L59.611 443.251L41.7366 443.251L41.7366 439.48Z" fill="white"/>
<path d="M54.0789 417.464C57.1936 418.348 60.0061 420.769 60.0061 426.215C60.0061 432.475 55.6595 435.594 50.7086 435.594C45.7577 435.594 41.3646 432.126 41.3646 426.005C41.3646 420.629 44.3166 417.976 47.2918 417.394L47.2918 421.211C45.9901 421.7 44.3166 422.84 44.3166 426.029C44.3166 429.613 47.0128 431.614 50.5691 431.614C54.1022 431.614 57.0541 429.752 57.0541 426.005C57.0541 423.189 55.9152 422.002 54.0789 421.211L54.0789 417.464V417.464Z" fill="white"/>
<path d="M41.7366 414.229L41.7366 410.459L49.8719 410.459C47.501 407.829 44.8047 404.733 41.7366 401.335L41.7366 396.681L49.4302 405.315L59.6342 396.192L59.6342 400.917L51.4989 408.038L53.4979 410.482L59.6342 410.482L59.6342 414.229L41.7366 414.229Z" fill="white"/>
<path d="M51.8243 380.321L51.8243 390.561L56.5893 390.561L56.5893 379.203L59.6342 379.646L59.6342 394.308L41.7366 394.308L41.7366 379.762L44.7815 379.762L44.7815 390.537L48.7794 390.537L48.7794 380.297L51.8243 380.297L51.8243 380.321Z" fill="white"/>
<path d="M44.7583 371.034L44.7583 377.504L41.7366 377.504L41.7366 360.817L44.7815 360.817L44.7815 367.264L59.6342 367.264L59.6342 371.034L44.7583 371.034Z" fill="white"/>
<path d="M265.248 134.255L265.248 135.605L293.257 135.605L293.257 134.255L265.248 134.255Z" fill="#C6E1E8"/>
<path d="M265.248 129.368L265.248 131.672L293.257 131.672L293.257 129.368L265.248 129.368Z" fill="#C6E1E8"/>
<path d="M265.248 126.202L265.248 126.784L293.257 126.784L293.257 126.202L265.248 126.202Z" fill="#C6E1E8"/>
<path d="M265.248 122.293L265.248 123.643L293.257 123.643L293.257 122.293L265.248 122.293Z" fill="#C6E1E8"/>
<path d="M265.248 117.405L265.248 119.709L293.257 119.709L293.257 117.405L265.248 117.405Z" fill="#C6E1E8"/>
<path d="M265.248 114.24L265.248 114.822L293.257 114.822L293.257 114.24L265.248 114.24Z" fill="#C6E1E8"/>
<path d="M265.248 109.376L265.248 111.68L293.257 111.68L293.257 109.376L265.248 109.376Z" fill="#C6E1E8"/>
<path d="M265.248 91.1067L265.248 91.6885L293.257 91.6885L293.257 91.1067L265.248 91.1067Z" fill="#C6E1E8"/>
<path d="M265.248 87.197L265.248 88.5469L293.257 88.5469L293.257 87.197L265.248 87.197Z" fill="#C6E1E8"/>
<path d="M265.248 84.0321L265.248 84.614L293.257 84.614L293.257 84.0321L265.248 84.0321Z" fill="#C6E1E8"/>
<path d="M265.248 80.0986L265.248 81.4485L293.257 81.4485L293.257 80.0986L265.248 80.0986Z" fill="#C6E1E8"/>
<path d="M265.248 76.9337L265.248 77.5156L293.257 77.5156L293.257 76.9337L265.248 76.9337Z" fill="#C6E1E8"/>
<path d="M265.248 94.2716L265.248 96.5757L293.257 96.5757L293.257 94.2716L265.248 94.2716Z" fill="#C6E1E8"/>
<path d="M265.248 106.211L265.248 106.792L293.257 106.792L293.257 106.211L265.248 106.211Z" fill="#C6E1E8"/>
<path d="M265.248 102.301L265.248 103.651L293.257 103.651L293.257 102.301L265.248 102.301Z" fill="#C6E1E8"/>
<path d="M265.248 99.1359L265.248 99.7178L293.257 99.7178L293.257 99.1359L265.248 99.1359Z" fill="#C6E1E8"/>
<path d="M265.248 65.7624L265.248 66.3442L293.257 66.3442L293.257 65.7624L265.248 65.7624Z" fill="#C6E1E8"/>
<path d="M265.248 61.8528L265.248 63.2026L293.257 63.2026L293.257 61.8528L265.248 61.8528Z" fill="#C6E1E8"/>
<path d="M265.248 58.6877L265.248 59.2695L293.257 59.2695L293.257 58.6877L265.248 58.6877Z" fill="#C6E1E8"/>
<path d="M265.248 54.7541L265.248 56.104L293.257 56.104L293.257 54.7541L265.248 54.7541Z" fill="#C6E1E8"/>
<path d="M265.248 68.9274L265.248 71.2314L293.257 71.2314L293.257 68.9274L265.248 68.9274Z" fill="#C6E1E8"/>
<path d="M265.248 73.7917L265.248 74.3735L293.257 74.3735L293.257 73.7917L265.248 73.7917Z" fill="#C6E1E8"/>
<path d="M265.249 195.486L265.249 196.836L293.257 196.836L293.257 195.486L265.249 195.486Z" fill="#C6E1E8"/>
<path d="M265.248 190.599L265.248 192.903L293.257 192.903L293.257 190.599L265.248 190.599Z" fill="#C6E1E8"/>
<path d="M265.248 187.434L265.248 188.016L293.257 188.016L293.257 187.434L265.248 187.434Z" fill="#C6E1E8"/>
<path d="M265.248 183.524L265.248 184.874L293.257 184.874L293.257 183.524L265.248 183.524Z" fill="#C6E1E8"/>
<path d="M265.248 178.636L265.248 180.94L293.257 180.94L293.257 178.636L265.248 178.636Z" fill="#C6E1E8"/>
<path d="M265.248 175.471L265.248 176.053L293.257 176.053L293.257 175.471L265.248 175.471Z" fill="#C6E1E8"/>
<path d="M265.248 170.607L265.248 172.911L293.257 172.911L293.257 170.607L265.248 170.607Z" fill="#C6E1E8"/>
<path d="M265.248 152.338L265.248 152.92L293.257 152.92L293.257 152.338L265.248 152.338Z" fill="#C6E1E8"/>
<path d="M265.248 148.428L265.248 149.778L293.257 149.778L293.257 148.428L265.248 148.428Z" fill="#C6E1E8"/>
<path d="M265.248 145.263L265.248 145.845L293.257 145.845L293.257 145.263L265.248 145.263Z" fill="#C6E1E8"/>
<path d="M265.248 141.33L265.248 142.68L293.257 142.68L293.257 141.33L265.248 141.33Z" fill="#C6E1E8"/>
<path d="M265.248 138.165L265.248 138.747L293.257 138.747L293.257 138.165L265.248 138.165Z" fill="#C6E1E8"/>
<path d="M265.248 155.503L265.248 157.807L293.257 157.807L293.257 155.503L265.248 155.503Z" fill="#C6E1E8"/>
<path d="M265.248 167.442L265.248 168.024L293.257 168.024L293.257 167.442L265.248 167.442Z" fill="#C6E1E8"/>
<path d="M265.248 163.532L265.248 164.882L293.257 164.882L293.257 163.532L265.248 163.532Z" fill="#C6E1E8"/>
<path d="M265.248 160.368L265.248 160.949L293.257 160.949L293.257 160.368L265.248 160.368Z" fill="#C6E1E8"/>
<path d="M250.557 633.507L250.557 630.04C250.557 627.968 251.835 626.525 254.229 626.525C256.577 626.525 258.018 627.829 258.018 630.249L258.018 631.901L263.597 631.901L263.597 633.507L250.557 633.507ZM256.693 631.901L256.693 630.412C256.693 628.899 255.903 628.131 254.229 628.131C252.812 628.131 251.905 628.876 251.905 630.249L251.905 631.901L256.693 631.901V631.901Z" fill="#C6E1E8"/>
<path d="M259.623 624.199L263.598 625.083L263.598 626.689L250.558 623.57L250.558 621.499L263.598 618.287L263.598 619.986L259.623 620.894L259.623 624.199ZM258.228 621.196C255.16 621.894 253.161 622.383 252.092 622.546L252.092 622.593C253.231 622.779 255.509 623.268 258.228 623.896L258.228 621.196Z" fill="#C6E1E8"/>
<path d="M260.134 615.634C261.436 615.517 262.482 614.912 262.482 613.539C262.482 612.213 261.738 611.584 260.343 611.584C259.019 611.584 258.321 612.143 257.484 613.888C256.485 615.96 255.579 616.867 253.673 616.867C251.836 616.867 250.395 615.68 250.395 613.516C250.395 610.909 252.231 610.234 253.789 610.188L253.789 611.771C253.138 611.84 251.697 612.027 251.697 613.563C251.697 614.749 252.51 615.261 253.51 615.261C254.695 615.261 255.253 614.726 256.02 613.12C257.113 610.816 258.182 609.955 260.181 609.955C262.249 609.955 263.784 611.142 263.784 613.609C263.784 616.309 262.04 617.17 260.134 617.263L260.134 615.634V615.634Z" fill="#C6E1E8"/>
<path d="M260.134 607.046C261.436 606.93 262.482 606.324 262.482 604.951C262.482 603.625 261.738 602.996 260.343 602.996C259.019 602.996 258.321 603.555 257.484 605.3C256.485 607.372 255.579 608.279 253.673 608.279C251.836 608.279 250.395 607.092 250.395 604.928C250.395 602.322 252.231 601.647 253.789 601.6L253.789 603.183C253.138 603.252 251.697 603.439 251.697 604.975C251.697 606.162 252.51 606.674 253.51 606.674C254.695 606.674 255.253 606.138 256.02 604.532C257.113 602.228 258.182 601.367 260.181 601.367C262.249 601.367 263.784 602.554 263.784 605.021C263.784 607.721 262.04 608.582 260.134 608.675L260.134 607.046V607.046Z" fill="#C6E1E8"/>
<path d="M257.438 593.594L257.438 597.923L262.203 597.923L262.203 593.106L263.598 593.315L263.598 599.506L250.558 599.506L250.558 593.385L251.976 593.385L251.976 597.923L255.997 597.923L255.997 593.594L257.438 593.594Z" fill="#C6E1E8"/>
<path d="M263.598 591.546L250.558 591.546L250.558 589.614C259.251 586.17 260.506 585.658 261.064 585.495L261.064 585.472C259.344 585.565 257.392 585.588 255.276 585.588L250.558 585.588L250.558 584.099L263.598 584.099L263.598 585.96C254.463 589.521 253.231 589.987 252.696 590.15L252.696 590.173C254.323 590.08 256.415 590.056 258.763 590.056L263.598 590.056L263.598 591.546V591.546Z" fill="#C6E1E8"/>
<path d="M263.598 574.51L263.598 575.767C263.226 575.814 262.854 575.86 262.25 575.86C263.179 576.326 263.807 577.024 263.807 578.467C263.807 581.283 260.994 582.074 257.113 582.074C252.58 582.074 250.372 580.655 250.372 577.978C250.372 574.766 253.185 574.557 253.975 574.534L253.975 576.14C253.51 576.186 251.767 576.279 251.767 578.025C251.767 579.817 253.905 580.422 257.09 580.422C260.32 580.422 262.412 579.956 262.412 578.188C262.412 576.535 261.041 576.14 258.461 576.14L257.81 576.14L257.81 578.304L256.415 578.304L256.415 574.557L263.598 574.557L263.598 574.51Z" fill="#C6E1E8"/>
<path d="M257.438 566.318L257.438 570.647L262.203 570.647L262.203 565.829L263.598 566.039L263.598 572.229L250.558 572.229L250.558 566.109L251.976 566.109L251.976 570.647L255.997 570.647L255.997 566.318L257.438 566.318Z" fill="#C6E1E8"/>
<path d="M257.694 562.664L263.621 562.664L263.621 564.27L250.581 564.27L250.581 560.756C250.581 558.522 251.813 557.335 253.975 557.335C255.904 557.335 256.741 558.312 257.02 559.08C257.461 557.917 258.484 557.521 260.32 557.521L260.832 557.521C262.087 557.521 262.9 557.475 263.598 557.335L263.598 558.917C262.993 559.104 261.878 559.127 260.785 559.127L260.344 559.127C258.507 559.127 257.671 559.499 257.671 561.222L257.671 562.664L257.694 562.664ZM256.346 562.664L256.346 561.105C256.346 559.546 255.509 558.964 254.021 558.964C252.743 558.964 251.906 559.546 251.906 560.965L251.906 562.688L256.346 562.688L256.346 562.664Z" fill="#C6E1E8"/>
<path d="M282.907 633.05L282.907 634.957L271.69 637.152L271.69 635.742L281.497 633.979L271.69 632.072L271.69 630.694L282.907 633.05ZM282.907 630.219L281.738 630.219L281.738 629.097L272.86 629.097L272.86 630.219L271.69 630.219L271.69 626.581L272.86 626.581L272.86 627.703L281.738 627.703L281.738 626.581L282.907 626.581L282.907 630.219ZM272.908 622.553L282.907 622.553L282.907 623.947L272.908 623.947L272.908 626.415L271.69 626.415L271.69 620.085L272.908 620.085L272.908 622.553ZM282.907 615.261L280.071 615.87L280.071 618.995L282.907 619.62L282.907 621.046L271.69 618.338L271.69 616.495L282.907 613.835L282.907 615.261ZM272.748 617.441L278.869 618.739L278.869 616.127L272.748 617.441ZM282.907 612.874L271.69 612.874L271.69 611.479L281.69 611.479L281.69 607.906L282.907 607.906L282.907 612.874ZM282.907 607.743L281.738 607.743L281.738 606.621L272.86 606.621L272.86 607.743L271.69 607.743L271.69 604.106L272.86 604.106L272.86 605.227L281.738 605.227L281.738 604.106L282.907 604.106L282.907 607.743ZM282.907 603.458L281.738 603.458L281.738 602.337L272.86 602.337L272.86 603.458L271.69 603.458L271.69 599.821L272.86 599.821L272.86 600.942L281.738 600.942L281.738 599.821L282.907 599.821L282.907 603.458ZM276.017 589.546C276.882 589.546 277.523 589.776 277.94 590.235C278.346 590.695 278.549 591.373 278.549 592.271L278.549 593.777L282.907 593.777L282.907 595.171L271.69 595.171L271.69 592.303C271.69 591.395 271.893 590.711 272.299 590.252C272.694 589.781 273.325 589.546 274.19 589.546L276.017 589.546ZM274.046 590.941C273.64 590.941 273.346 591.037 273.164 591.229C272.983 591.411 272.892 591.704 272.892 592.11L272.892 593.777L277.347 593.777L277.347 592.11C277.347 591.704 277.256 591.411 277.074 591.229C276.882 591.037 276.583 590.941 276.177 590.941L274.046 590.941ZM277.699 585.066L282.907 585.066L282.907 586.509L277.699 586.509L271.69 589.377L271.69 587.839L276.353 585.723L271.69 583.608L271.69 582.15L277.699 585.066ZM280.183 576.708C281.091 576.708 281.775 576.96 282.234 577.462C282.683 577.953 282.907 578.664 282.907 579.593L282.907 581.708L281.69 581.708L281.69 579.433C281.69 579.037 281.572 578.717 281.337 578.471C281.102 578.226 280.819 578.103 280.488 578.103L278.821 578.103C278.501 578.103 278.244 578.188 278.052 578.359C277.849 578.519 277.747 578.765 277.747 579.096L277.747 579.417C277.747 580.207 277.518 580.832 277.058 581.292C276.588 581.751 275.91 581.981 275.023 581.981L274.414 581.981C273.506 581.981 272.828 581.735 272.379 581.244C271.92 580.741 271.69 580.026 271.69 579.096L271.69 576.965L272.908 576.965L272.908 579.256C272.908 579.652 273.025 579.972 273.26 580.218C273.496 580.464 273.779 580.587 274.11 580.587L275.328 580.587C275.659 580.587 275.937 580.48 276.161 580.266C276.375 580.052 276.481 579.775 276.481 579.433L276.481 579.112C276.481 578.354 276.7 577.766 277.139 577.349C277.577 576.922 278.239 576.708 279.126 576.708L280.183 576.708ZM282.907 570.564L277.747 570.564L277.747 573.865L282.907 573.865L282.907 575.259L271.69 575.259L271.69 573.865L276.562 573.865L276.562 570.564L271.69 570.564L271.69 569.17L282.907 569.17L282.907 570.564ZM282.907 562.779L277.812 565.279L278.773 565.856L282.907 565.856L282.907 567.25L271.69 567.25L271.69 565.856L276.53 565.856L271.69 562.891L271.69 561.369L276.594 564.413L282.907 561.208L282.907 562.779ZM280.183 554.323C281.091 554.323 281.775 554.574 282.234 555.076C282.683 555.568 282.907 556.278 282.907 557.208L282.907 557.752C282.907 558.682 282.683 559.398 282.234 559.9C281.775 560.391 281.091 560.637 280.183 560.637L274.414 560.637C273.506 560.637 272.828 560.391 272.379 559.9C271.92 559.398 271.69 558.682 271.69 557.752L271.69 557.208C271.69 556.278 271.92 555.568 272.379 555.076C272.828 554.574 273.506 554.323 274.414 554.323L280.183 554.323ZM274.11 555.717C273.779 555.717 273.496 555.84 273.26 556.086C273.025 556.332 272.908 556.652 272.908 557.047L272.908 557.913C272.908 558.308 273.025 558.628 273.26 558.874C273.496 559.12 273.779 559.243 274.11 559.243L280.488 559.243C280.819 559.243 281.102 559.12 281.337 558.874C281.572 558.628 281.69 558.308 281.69 557.913L281.69 557.047C281.69 556.652 281.572 556.332 281.337 556.086C281.102 555.84 280.819 555.717 280.488 555.717L274.11 555.717Z" fill="#D7EEF5"/>
<path d="M262.11 518.12L262.11 519.376C261.738 519.423 261.366 519.47 260.762 519.47C261.692 519.935 262.319 520.633 262.319 522.076C262.319 524.892 259.507 525.66 255.625 525.66C251.093 525.66 248.885 524.241 248.885 521.564C248.885 518.352 251.697 518.143 252.487 518.12L252.487 519.726C252.022 519.772 250.279 519.865 250.279 521.611C250.279 523.403 252.418 524.008 255.602 524.008C258.833 524.008 260.925 523.542 260.925 521.774C260.925 520.121 259.553 519.726 256.973 519.726L256.323 519.726L256.323 521.89L254.928 521.89L254.928 518.143L262.11 518.143L262.11 518.12Z" fill="#C6E1E8"/>
<path d="M258.136 514.21L262.11 515.094L262.11 516.7L249.071 513.581L249.071 511.487L262.11 508.275L262.11 509.974L258.136 510.882L258.136 514.21ZM256.718 511.208C253.65 511.906 251.651 512.394 250.581 512.557L250.581 512.604C251.72 512.79 253.998 513.279 256.718 513.907L256.718 511.208Z" fill="#C6E1E8"/>
<path d="M250.488 506.25L250.488 509.136L249.071 509.136L249.071 501.759L250.488 501.759L250.488 504.645L262.11 504.645L262.11 506.25L250.488 506.25V506.25Z" fill="#C6E1E8"/>
<path d="M255.927 494.475L255.927 498.803L260.692 498.803L260.692 493.986L262.087 494.195L262.087 500.386L249.047 500.386L249.047 494.265L250.465 494.265L250.465 498.803L254.486 498.803L254.486 494.475L255.927 494.475Z" fill="#C6E1E8"/>
<path d="M281.497 519.64L277.844 517.236C277.309 516.884 276.941 516.649 276.738 516.531C276.524 516.414 276.316 516.334 276.113 516.291C275.91 516.248 275.616 516.227 275.232 516.227L274.11 516.227C273.779 516.227 273.496 516.35 273.26 516.595C273.025 516.841 272.908 517.162 272.908 517.557L272.908 519.32L271.69 519.32L271.69 517.717C271.69 516.788 271.92 516.077 272.379 515.586C272.828 515.084 273.506 514.833 274.414 514.833L275.087 514.833C275.621 514.833 276.027 514.859 276.305 514.913C276.583 514.966 276.845 515.062 277.09 515.201C277.336 515.33 277.753 515.586 278.34 515.971L281.69 518.182L281.69 514.512L282.907 514.512L282.907 519.64L281.497 519.64ZM280.376 507.962C281.262 507.962 281.909 508.176 282.315 508.603C282.71 509.031 282.907 509.725 282.907 510.687L282.907 512.578L281.706 512.578L281.706 510.542C281.706 510.136 281.615 509.837 281.433 509.645C281.241 509.453 280.942 509.357 280.536 509.357L278.885 509.357C278.533 509.357 278.255 509.463 278.052 509.677C277.838 509.891 277.731 510.174 277.731 510.526L277.731 512.081L276.53 512.081L276.53 510.687C276.53 510.355 276.423 510.078 276.209 509.853C275.995 509.629 275.712 509.517 275.36 509.517L274.046 509.517C273.64 509.517 273.346 509.613 273.164 509.805C272.983 509.987 272.892 510.281 272.892 510.687L272.892 512.578L271.69 512.578L271.69 510.879C271.69 509.971 271.893 509.287 272.299 508.828C272.694 508.358 273.325 508.123 274.19 508.123L275.2 508.123C276.022 508.123 276.642 508.416 277.058 509.004C277.443 508.31 278.1 507.962 279.029 507.962L280.376 507.962ZM282.907 501.012L280.071 501.621L280.071 504.746L282.907 505.371L282.907 506.797L271.69 504.089L271.69 502.246L282.907 499.586L282.907 501.012ZM272.748 503.191L278.869 504.489L278.869 501.877L272.748 503.191Z" fill="#D7EEF5"/>
<path d="M249.071 451.466L249.071 448.464C249.071 445.392 251.187 444.042 255.254 444.042C259.671 444.042 262.111 445.275 262.111 448.673L262.111 451.466L249.071 451.466ZM260.74 449.837L260.74 448.72C260.74 446.439 258.95 445.717 255.277 445.717C251.907 445.717 250.42 446.555 250.42 448.72L250.42 449.837L260.74 449.837Z" fill="#C6E1E8"/>
<path d="M255.927 436.083L255.927 440.412L260.692 440.412L260.692 435.594L262.087 435.804L262.087 441.994L249.047 441.994L249.047 435.873L250.465 435.873L250.465 440.412L254.486 440.412L254.486 436.083L255.927 436.083Z" fill="#C6E1E8"/>
<path d="M249.071 434.034L249.071 430.567C249.071 428.495 250.349 427.053 252.743 427.053C255.091 427.053 256.532 428.356 256.532 430.776L256.532 432.429L262.11 432.429L262.11 434.034L249.071 434.034V434.034ZM255.184 432.429L255.184 430.939C255.184 429.426 254.393 428.658 252.72 428.658C251.302 428.658 250.395 429.403 250.395 430.776L250.395 432.429L255.184 432.429V432.429Z" fill="#C6E1E8"/>
<path d="M258.136 424.725L262.11 425.61L262.11 427.216L249.071 424.097L249.071 422.002L262.11 418.791L262.11 420.49L258.136 421.397L258.136 424.725ZM256.718 421.723C253.65 422.421 251.651 422.91 250.581 423.073L250.581 423.119C251.72 423.306 253.998 423.794 256.718 424.423L256.718 421.723Z" fill="#C6E1E8"/>
<path d="M256.183 415.835L262.11 415.835L262.11 417.441L249.071 417.441L249.071 413.926C249.071 411.692 250.302 410.505 252.464 410.505C254.393 410.505 255.23 411.483 255.509 412.251C255.951 411.087 256.973 410.691 258.81 410.691L259.321 410.691C260.576 410.691 261.39 410.645 262.087 410.505L262.087 412.088C261.483 412.274 260.367 412.297 259.275 412.297L258.833 412.297C256.997 412.297 256.16 412.67 256.16 414.392L256.16 415.835L256.183 415.835ZM254.835 415.835L254.835 414.276C254.835 412.716 253.998 412.134 252.511 412.134C251.232 412.134 250.395 412.716 250.395 414.136L250.395 415.858L254.835 415.858L254.835 415.835Z" fill="#C6E1E8"/>
<path d="M250.488 406.665L250.488 409.551L249.071 409.551L249.071 402.174L250.488 402.174L250.488 405.06L262.11 405.06L262.11 406.665L250.488 406.665V406.665Z" fill="#C6E1E8"/>
<path d="M249.071 399.311L258.182 399.311C259.553 399.311 260.948 398.916 260.948 397.263C260.948 395.588 259.786 395.192 258.182 395.192L249.071 395.192L249.071 393.586L258.205 393.586C260.576 393.586 262.32 394.447 262.32 397.287C262.32 400.033 260.692 400.917 258.275 400.917L249.071 400.917L249.071 399.311Z" fill="#C6E1E8"/>
<path d="M256.183 389.606L262.11 389.606L262.11 391.212L249.071 391.212L249.071 387.698C249.071 385.464 250.302 384.277 252.464 384.277C254.393 384.277 255.23 385.254 255.509 386.022C255.951 384.859 256.973 384.463 258.81 384.463L259.321 384.463C260.576 384.463 261.39 384.416 262.087 384.277L262.087 385.859C261.483 386.046 260.367 386.069 259.275 386.069L258.833 386.069C256.997 386.069 256.16 386.441 256.16 388.163L256.16 389.606L256.183 389.606ZM254.835 389.606L254.835 388.047C254.835 386.488 253.998 385.906 252.511 385.906C251.232 385.906 250.395 386.488 250.395 387.907L250.395 389.63L254.835 389.63L254.835 389.606Z" fill="#C6E1E8"/>
<path d="M255.927 376.341L255.927 380.669L260.692 380.669L260.692 375.852L262.087 376.061L262.087 382.252L249.047 382.252L249.047 376.131L250.465 376.131L250.465 380.669L254.486 380.669L254.486 376.341L255.927 376.341Z" fill="#C6E1E8"/>
<path d="M280.136 450.282C281.023 450.282 281.701 450.528 282.171 451.019C282.631 451.5 282.86 452.151 282.86 452.974L282.86 453.134C282.86 453.957 282.631 454.614 282.171 455.105C281.701 455.586 281.023 455.826 280.136 455.826L274.367 455.826C273.47 455.826 272.791 455.586 272.332 455.105C271.873 454.625 271.643 453.968 271.643 453.134L271.643 452.974C271.643 452.141 271.873 451.484 272.332 451.003C272.791 450.522 273.47 450.282 274.367 450.282L280.136 450.282ZM274.063 451.644C273.732 451.644 273.448 451.772 273.213 452.029C272.968 452.274 272.845 452.589 272.845 452.974L272.845 453.134C272.845 453.519 272.968 453.839 273.213 454.096C273.448 454.342 273.732 454.464 274.063 454.464L280.441 454.464C280.772 454.464 281.06 454.342 281.306 454.096C281.541 453.839 281.658 453.519 281.658 453.134L281.658 452.974C281.658 452.589 281.541 452.274 281.306 452.029C281.06 451.772 280.772 451.644 280.441 451.644L274.063 451.644ZM280.136 443.604C281.012 443.604 281.685 443.844 282.155 444.325C282.625 444.806 282.86 445.409 282.86 446.136L282.86 446.536C282.86 447.263 282.625 447.867 282.155 448.347C281.685 448.828 281.012 449.068 280.136 449.068L274.367 449.068C273.459 449.068 272.781 448.828 272.332 448.347C271.873 447.856 271.643 447.145 271.643 446.216L271.643 444.373L272.861 444.373L272.861 446.376C272.861 446.771 272.978 447.092 273.213 447.338C273.448 447.583 273.732 447.706 274.063 447.706L275.809 447.706L275.809 446.296C275.809 445.377 276.012 444.699 276.418 444.261C276.824 443.823 277.476 443.604 278.373 443.604L280.136 443.604ZM280.441 447.706C280.782 447.706 281.071 447.594 281.306 447.37C281.541 447.145 281.658 446.841 281.658 446.456L281.658 446.216C281.658 445.831 281.541 445.527 281.306 445.303C281.071 445.078 280.782 444.966 280.441 444.966L278.069 444.966C277.738 444.966 277.481 445.067 277.3 445.27C277.107 445.463 277.011 445.751 277.011 446.136L277.011 447.706L280.441 447.706ZM276.45 442.326L274.848 442.326L274.848 440.724L276.45 440.724L276.45 442.326ZM282.86 442.326L281.258 442.326L281.258 440.724L282.86 440.724L282.86 442.326ZM280.328 434.483C281.215 434.483 281.861 434.696 282.267 435.124C282.663 435.551 282.86 436.245 282.86 437.207L282.86 439.146L281.658 439.146L281.658 437.063C281.658 436.657 281.568 436.358 281.386 436.165C281.194 435.973 280.895 435.877 280.489 435.877L278.454 435.877C278.101 435.877 277.823 435.984 277.62 436.197C277.407 436.411 277.3 436.694 277.3 437.047L277.3 438.986L271.643 438.986L271.643 434.723L272.845 434.723L272.845 437.623L276.098 437.623L276.098 437.127C276.098 436.304 276.301 435.658 276.707 435.188C277.113 434.718 277.743 434.483 278.598 434.483L280.328 434.483ZM280.328 427.757C281.215 427.757 281.861 427.97 282.267 428.398C282.663 428.825 282.86 429.519 282.86 430.481L282.86 432.42L281.658 432.42L281.658 430.337C281.658 429.931 281.568 429.631 281.386 429.439C281.194 429.247 280.895 429.151 280.489 429.151L278.454 429.151C278.101 429.151 277.823 429.258 277.62 429.471C277.407 429.685 277.3 429.968 277.3 430.321L277.3 432.26L271.643 432.26L271.643 427.997L272.845 427.997L272.845 430.897L276.098 430.897L276.098 430.401C276.098 429.578 276.301 428.932 276.707 428.462C277.113 427.992 277.743 427.757 278.598 427.757L280.328 427.757ZM282.86 422.188L281.658 422.188L281.658 420.249L272.909 420.249L273.742 422.348L272.444 422.348L271.643 420.409L271.643 418.887L281.658 418.887L281.658 417.3L282.86 417.3L282.86 422.188ZM281.45 415.927L277.796 413.523C277.262 413.17 276.894 412.935 276.691 412.818C276.477 412.7 276.269 412.62 276.066 412.577C275.863 412.535 275.569 412.513 275.184 412.513L274.063 412.513C273.732 412.513 273.448 412.636 273.213 412.882C272.978 413.128 272.861 413.448 272.861 413.843L272.861 415.606L271.643 415.606L271.643 414.004C271.643 413.074 271.873 412.364 272.332 411.872C272.781 411.37 273.459 411.119 274.367 411.119L275.04 411.119C275.574 411.119 275.98 411.146 276.258 411.199C276.536 411.253 276.798 411.349 277.043 411.488C277.289 411.616 277.706 411.872 278.293 412.257L281.642 414.468L281.642 410.799L282.86 410.799L282.86 415.927L281.45 415.927ZM280.328 399.621C281.247 399.621 281.899 399.835 282.283 400.262C282.668 400.679 282.86 401.374 282.86 402.346L282.86 405.487L271.643 405.487L271.643 402.538C271.643 401.576 271.841 400.85 272.236 400.359C272.62 399.867 273.256 399.621 274.143 399.621L280.328 399.621ZM273.999 401.016C273.646 401.016 273.368 401.122 273.165 401.336C272.952 401.55 272.845 401.833 272.845 402.185L272.845 404.092L281.658 404.092L281.658 402.201C281.658 401.795 281.568 401.496 281.386 401.304C281.194 401.112 280.895 401.016 280.489 401.016L273.999 401.016ZM282.86 397.853L271.643 397.853L271.643 392.597L272.813 392.597L272.813 396.459L276.482 396.459L276.482 392.997L277.652 392.997L277.652 396.459L281.691 396.459L281.691 392.597L282.86 392.597L282.86 397.853ZM282.86 388.356C282.86 389.285 282.636 390.001 282.187 390.503C281.728 390.994 281.044 391.24 280.136 391.24L274.367 391.24C273.459 391.24 272.781 390.994 272.332 390.503C271.873 390.001 271.643 389.285 271.643 388.356L271.643 386.401L272.861 386.401L272.861 388.516C272.861 388.911 272.978 389.232 273.213 389.477C273.448 389.723 273.732 389.846 274.063 389.846L280.441 389.846C280.772 389.846 281.055 389.723 281.29 389.477C281.525 389.232 281.642 388.911 281.642 388.516L281.642 386.401L282.86 386.401L282.86 388.356ZM281.45 382.19L277.796 379.786C277.262 379.434 276.894 379.199 276.691 379.081C276.477 378.964 276.269 378.883 276.066 378.841C275.863 378.798 275.569 378.777 275.184 378.777L274.063 378.777C273.732 378.777 273.448 378.899 273.213 379.145C272.978 379.391 272.861 379.711 272.861 380.107L272.861 381.869L271.643 381.869L271.643 380.267C271.643 379.337 271.873 378.627 272.332 378.136C272.781 377.633 273.459 377.382 274.367 377.382L275.04 377.382C275.574 377.382 275.98 377.409 276.258 377.463C276.536 377.516 276.798 377.612 277.043 377.751C277.289 377.879 277.706 378.136 278.293 378.52L281.642 380.732L281.642 377.062L282.86 377.062L282.86 382.19L281.45 382.19ZM280.136 369.935C281.023 369.935 281.701 370.181 282.171 370.672C282.631 371.153 282.86 371.805 282.86 372.627L282.86 372.788C282.86 373.61 282.631 374.267 282.171 374.759C281.701 375.239 281.023 375.48 280.136 375.48L274.367 375.48C273.47 375.48 272.791 375.239 272.332 374.759C271.873 374.278 271.643 373.621 271.643 372.788L271.643 372.627C271.643 371.794 271.873 371.137 272.332 370.656C272.791 370.176 273.47 369.935 274.367 369.935L280.136 369.935ZM274.063 371.297C273.732 371.297 273.448 371.426 273.213 371.682C272.968 371.928 272.845 372.243 272.845 372.627L272.845 372.788C272.845 373.172 272.968 373.493 273.213 373.749C273.448 373.995 273.732 374.118 274.063 374.118L280.441 374.118C280.772 374.118 281.06 373.995 281.306 373.749C281.541 373.493 281.658 373.172 281.658 372.788L281.658 372.627C281.658 372.243 281.541 371.928 281.306 371.682C281.06 371.426 280.772 371.297 280.441 371.297L274.063 371.297ZM281.45 368.738L277.796 366.334C277.262 365.981 276.894 365.746 276.691 365.629C276.477 365.511 276.269 365.431 276.066 365.389C275.863 365.346 275.569 365.324 275.184 365.324L274.063 365.324C273.732 365.324 273.448 365.447 273.213 365.693C272.978 365.939 272.861 366.259 272.861 366.655L272.861 368.417L271.643 368.417L271.643 366.815C271.643 365.885 271.873 365.175 272.332 364.683C272.781 364.181 273.459 363.93 274.367 363.93L275.04 363.93C275.574 363.93 275.98 363.957 276.258 364.01C276.536 364.064 276.798 364.16 277.043 364.299C277.289 364.427 277.706 364.683 278.293 365.068L281.642 367.279L281.642 363.61L282.86 363.61L282.86 368.738L281.45 368.738ZM280.136 356.483C281.023 356.483 281.701 356.729 282.171 357.22C282.631 357.701 282.86 358.353 282.86 359.175L282.86 359.336C282.86 360.158 282.631 360.815 282.171 361.307C281.701 361.787 281.023 362.028 280.136 362.028L274.367 362.028C273.47 362.028 272.791 361.787 272.332 361.307C271.873 360.826 271.643 360.169 271.643 359.336L271.643 359.175C271.643 358.342 271.873 357.685 272.332 357.204C272.791 356.723 273.47 356.483 274.367 356.483L280.136 356.483ZM274.063 357.845C273.732 357.845 273.448 357.973 273.213 358.23C272.968 358.476 272.845 358.791 272.845 359.175L272.845 359.336C272.845 359.72 272.968 360.041 273.213 360.297C273.448 360.543 273.732 360.666 274.063 360.666L280.441 360.666C280.772 360.666 281.06 360.543 281.306 360.297C281.541 360.041 281.658 359.72 281.658 359.336L281.658 359.175C281.658 358.791 281.541 358.476 281.306 358.23C281.06 357.973 280.772 357.845 280.441 357.845L274.063 357.845Z" fill="#D7EEF5"/>
<path d="M250.07 286.926L250.07 287.88L284.168 287.88L284.168 286.926L250.07 286.926Z" fill="#C6E1E8"/>
<path d="M250.07 283.528L250.07 285.134L284.168 285.134L284.168 283.528L250.07 283.528Z" fill="#C6E1E8"/>
<path d="M250.07 281.317L250.07 281.713L284.168 281.713L284.168 281.317L250.07 281.317Z" fill="#C6E1E8"/>
<path d="M250.07 278.547L250.07 279.501L284.168 279.501L284.168 278.547L250.07 278.547Z" fill="#C6E1E8"/>
<path d="M250.07 275.149L250.07 276.755L284.168 276.755L284.168 275.149L250.07 275.149Z" fill="#C6E1E8"/>
<path d="M250.07 272.962L250.07 273.358L284.168 273.358L284.168 272.962L250.07 272.962Z" fill="#C6E1E8"/>
<path d="M250.07 269.541L250.07 271.147L284.168 271.147L284.168 269.541L250.07 269.541Z" fill="#C6E1E8"/>
<path d="M250.07 256.764L250.07 257.159L284.168 257.159L284.168 256.764L250.07 256.764Z" fill="#C6E1E8"/>
<path d="M250.07 253.995L250.07 254.949L284.168 254.949L284.168 253.995L250.07 253.995Z" fill="#C6E1E8"/>
<path d="M250.07 251.807L250.07 252.203L284.168 252.203L284.168 251.807L250.07 251.807Z" fill="#C6E1E8"/>
<path d="M250.07 249.061L250.07 250.015L284.168 250.015L284.168 249.061L250.07 249.061Z" fill="#C6E1E8"/>
<path d="M250.07 246.873L250.07 247.269L284.168 247.269L284.168 246.873L250.07 246.873Z" fill="#C6E1E8"/>
<path d="M250.07 258.975L250.07 260.581L284.168 260.581L284.168 258.975L250.07 258.975Z" fill="#C6E1E8"/>
<path d="M250.07 267.33L250.07 267.726L284.168 267.726L284.168 267.33L250.07 267.33Z" fill="#C6E1E8"/>
<path d="M250.07 264.583L250.07 265.538L284.168 265.538L284.168 264.583L250.07 264.583Z" fill="#C6E1E8"/>
<path d="M250.07 262.373L250.07 262.769L284.168 262.769L284.168 262.373L250.07 262.373Z" fill="#C6E1E8"/>
<path d="M250.07 239.054L250.07 239.449L284.168 239.449L284.168 239.054L250.07 239.054Z" fill="#C6E1E8"/>
<path d="M250.07 236.284L250.07 237.238L284.168 237.238L284.168 236.284L250.07 236.284Z" fill="#C6E1E8"/>
<path d="M250.07 234.096L250.07 234.491L284.168 234.491L284.168 234.096L250.07 234.096Z" fill="#C6E1E8"/>
<path d="M250.07 231.326L250.07 232.281L284.168 232.281L284.168 231.326L250.07 231.326Z" fill="#C6E1E8"/>
<path d="M250.07 241.241L250.07 242.847L284.168 242.847L284.168 241.241L250.07 241.241Z" fill="#C6E1E8"/>
<path d="M250.07 244.662L250.07 245.058L284.168 245.058L284.168 244.662L250.07 244.662Z" fill="#C6E1E8"/>
<path d="M250.07 329.748L250.07 330.702L284.169 330.702L284.169 329.748L250.07 329.748Z" fill="#C6E1E8"/>
<path d="M250.07 326.35L250.07 327.956L284.168 327.956L284.168 326.35L250.07 326.35Z" fill="#C6E1E8"/>
<path d="M250.07 324.139L250.07 324.535L284.168 324.535L284.168 324.139L250.07 324.139Z" fill="#C6E1E8"/>
<path d="M250.07 321.37L250.07 322.324L284.168 322.324L284.168 321.37L250.07 321.37Z" fill="#C6E1E8"/>
<path d="M250.07 317.972L250.07 319.578L284.168 319.578L284.168 317.972L250.07 317.972Z" fill="#C6E1E8"/>
<path d="M250.07 315.784L250.07 316.18L284.168 316.18L284.168 315.784L250.07 315.784Z" fill="#C6E1E8"/>
<path d="M250.07 312.363L250.07 313.969L284.168 313.969L284.168 312.363L250.07 312.363Z" fill="#C6E1E8"/>
<path d="M250.07 299.586L250.07 299.982L284.168 299.982L284.168 299.586L250.07 299.586Z" fill="#C6E1E8"/>
<path d="M250.07 296.817L250.07 297.771L284.168 297.771L284.168 296.817L250.07 296.817Z" fill="#C6E1E8"/>
<path d="M250.07 294.629L250.07 295.025L284.168 295.025L284.168 294.629L250.07 294.629Z" fill="#C6E1E8"/>
<path d="M250.07 291.883L250.07 292.837L284.168 292.837L284.168 291.883L250.07 291.883Z" fill="#C6E1E8"/>
<path d="M250.07 289.695L250.07 290.091L284.168 290.091L284.168 289.695L250.07 289.695Z" fill="#C6E1E8"/>
<path d="M250.07 301.797L250.07 303.403L284.168 303.403L284.168 301.797L250.07 301.797Z" fill="#C6E1E8"/>
<path d="M250.07 310.152L250.07 310.548L284.168 310.548L284.168 310.152L250.07 310.152Z" fill="#C6E1E8"/>
<path d="M250.07 307.406L250.07 308.36L284.168 308.36L284.168 307.406L250.07 307.406Z" fill="#C6E1E8"/>
<path d="M250.07 305.195L250.07 305.591L284.168 305.591L284.168 305.195L250.07 305.195Z" fill="#C6E1E8"/>
<path d="M239.75 174.626L236.287 174.626C234.218 174.626 232.777 173.731 232.777 172.054C232.777 170.41 234.079 169.401 236.496 169.401L238.146 169.401L238.146 165.494L239.75 165.494L239.75 174.626ZM238.146 170.345L236.659 170.345C235.148 170.345 234.381 170.899 234.381 172.071C234.381 173.064 235.125 173.699 236.496 173.699L238.146 173.699L238.146 170.345V170.345Z" fill="#C6E1E8"/>
<path d="M230.453 168.278L231.336 165.494L232.94 165.494L229.825 174.626L227.757 174.626L224.549 165.494L226.246 165.494L227.152 168.278L230.453 168.278ZM227.454 169.271C228.152 171.42 228.64 172.82 228.803 173.568L228.849 173.568C229.035 172.771 229.523 171.175 230.151 169.271L227.454 169.271Z" fill="#C6E1E8"/>
<path d="M221.899 167.936C221.783 167.024 221.179 166.292 219.807 166.292C218.482 166.292 217.855 166.813 217.855 167.79C217.855 168.717 218.413 169.206 220.156 169.792C222.225 170.492 223.131 171.127 223.131 172.461C223.131 173.747 221.946 174.757 219.784 174.757C217.181 174.757 216.507 173.471 216.46 172.38L218.041 172.38C218.111 172.836 218.296 173.845 219.831 173.845C221.016 173.845 221.527 173.275 221.527 172.575C221.527 171.745 220.993 171.354 219.389 170.817C217.088 170.052 216.228 169.303 216.228 167.903C216.228 166.455 217.413 165.38 219.877 165.38C222.573 165.38 223.433 166.601 223.526 167.936L221.899 167.936V167.936Z" fill="#C6E1E8"/>
<path d="M213.322 167.936C213.206 167.024 212.602 166.292 211.23 166.292C209.906 166.292 209.278 166.813 209.278 167.79C209.278 168.717 209.836 169.206 211.579 169.792C213.648 170.492 214.554 171.127 214.554 172.461C214.554 173.747 213.369 174.757 211.207 174.757C208.604 174.757 207.93 173.471 207.883 172.38L209.464 172.38C209.534 172.836 209.72 173.845 211.254 173.845C212.439 173.845 212.95 173.275 212.95 172.575C212.95 171.745 212.416 171.354 210.812 170.817C208.511 170.052 207.651 169.303 207.651 167.903C207.651 166.455 208.836 165.38 211.3 165.38C213.996 165.38 214.856 166.601 214.949 167.936L213.322 167.936V167.936Z" fill="#C6E1E8"/>
<path d="M199.888 169.824L204.211 169.824L204.211 166.487L199.4 166.487L199.609 165.51L205.792 165.51L205.792 174.643L199.678 174.643L199.678 173.65L204.211 173.65L204.211 170.833L199.888 170.833L199.888 169.824Z" fill="#C6E1E8"/>
<path d="M197.842 165.494L197.842 174.626L195.913 174.626C192.473 168.538 191.961 167.659 191.799 167.269L191.775 167.269C191.868 168.473 191.892 169.841 191.892 171.322L191.892 174.626L190.404 174.626L190.404 165.494L192.263 165.494C195.82 171.892 196.285 172.754 196.447 173.129L196.471 173.129C196.378 171.989 196.354 170.524 196.354 168.88L196.354 165.494L197.842 165.494V165.494Z" fill="#C6E1E8"/>
<path d="M180.828 165.494L182.083 165.494C182.129 165.755 182.176 166.015 182.176 166.438C182.641 165.787 183.338 165.348 184.779 165.348C187.592 165.348 188.382 167.317 188.382 170.036C188.382 173.21 186.964 174.757 184.291 174.757C181.083 174.757 180.874 172.787 180.851 172.233L182.455 172.233C182.501 172.559 182.594 173.78 184.337 173.78C186.127 173.78 186.732 172.282 186.732 170.052C186.732 167.789 186.267 166.324 184.5 166.324C182.85 166.324 182.455 167.285 182.455 169.092L182.455 169.548L184.616 169.548L184.616 170.524L180.874 170.524L180.874 165.494L180.828 165.494Z" fill="#C6E1E8"/>
<path d="M172.646 169.824L176.969 169.824L176.969 166.487L172.158 166.487L172.367 165.51L178.55 165.51L178.55 174.643L172.437 174.643L172.437 173.65L176.969 173.65L176.969 170.833L172.646 170.833L172.646 169.824Z" fill="#C6E1E8"/>
<path d="M168.996 169.646L168.996 165.496L170.6 165.496L170.6 174.628L167.09 174.628C164.859 174.628 163.674 173.765 163.674 172.251C163.674 170.9 164.65 170.314 165.417 170.119C164.255 169.809 163.86 169.093 163.86 167.807L163.86 167.449C163.86 166.57 163.813 166 163.674 165.512L165.254 165.512C165.44 165.935 165.463 166.716 165.463 167.481L165.463 167.791C165.463 169.077 165.835 169.663 167.555 169.663L168.996 169.663L168.996 169.646ZM168.996 170.591L167.439 170.591C165.882 170.591 165.301 171.177 165.301 172.218C165.301 173.114 165.882 173.7 167.3 173.7L169.02 173.7L169.02 170.591L168.996 170.591Z" fill="#C6E1E8"/>
<path d="M124.508 166.552L125.763 166.552C125.809 166.813 125.856 167.073 125.856 167.496C126.321 166.845 127.018 166.406 128.459 166.406C131.272 166.406 132.039 168.375 132.039 171.094C132.039 174.268 130.621 175.814 127.948 175.814C124.74 175.814 124.531 173.845 124.508 173.291L126.112 173.291C126.158 173.617 126.251 174.838 127.994 174.838C129.784 174.838 130.388 173.34 130.388 171.11C130.388 168.847 129.924 167.382 128.157 167.382C126.507 167.382 126.112 168.343 126.112 170.15L126.112 170.605L128.273 170.605L128.273 171.582L124.531 171.582L124.531 166.552L124.508 166.552Z" fill="#C6E1E8"/>
<path d="M120.603 169.336L121.486 166.552L123.09 166.552L119.975 175.684L117.883 175.684L114.675 166.552L116.372 166.552L117.279 169.336L120.603 169.336ZM117.604 170.329C118.301 172.477 118.79 173.877 118.952 174.626L118.999 174.626C119.185 173.829 119.673 172.233 120.3 170.329L117.604 170.329Z" fill="#C6E1E8"/>
<path d="M112.653 174.691L115.536 174.691L115.536 175.684L108.167 175.684L108.167 174.691L111.05 174.691L111.05 166.552L112.653 166.552L112.653 174.691V174.691Z" fill="#C6E1E8"/>
<path d="M100.892 170.882L105.215 170.882L105.215 167.545L100.404 167.545L100.613 166.569L106.796 166.569L106.796 175.701L100.683 175.701L100.683 174.708L105.215 174.708L105.215 171.892L100.892 171.892L100.892 170.882Z" fill="#C6E1E8"/>
<path d="M239.462 145.558L241.369 145.558L243.565 156.775L242.154 156.775L240.392 146.968L238.485 156.775L237.107 156.775L239.462 145.558ZM236.631 145.558L236.631 146.727L235.51 146.727L235.51 155.605L236.631 155.605L236.631 156.775L232.994 156.775L232.994 155.605L234.115 155.605L234.115 146.727L232.994 146.727L232.994 145.558L236.631 145.558ZM228.965 155.557L228.965 145.558L230.359 145.558L230.359 155.557L232.827 155.557L232.827 156.775L226.497 156.775L226.497 155.557L228.965 155.557ZM221.674 145.558L222.283 148.394L225.408 148.394L226.033 145.558L227.459 145.558L224.751 156.775L222.908 156.775L220.248 145.558L221.674 145.558ZM223.853 155.717L225.151 149.596L222.539 149.596L223.853 155.717ZM219.286 145.558L219.286 156.775L217.892 156.775L217.892 146.776L214.319 146.776L214.319 145.558L219.286 145.558ZM214.156 145.558L214.156 146.727L213.034 146.727L213.034 155.605L214.156 155.605L214.156 156.775L210.518 156.775L210.518 155.605L211.64 155.605L211.64 146.727L210.518 146.727L210.518 145.558L214.156 145.558ZM209.871 145.558L209.871 146.727L208.749 146.727L208.749 155.605L209.871 155.605L209.871 156.775L206.233 156.775L206.233 155.605L207.355 155.605L207.355 146.727L206.233 146.727L206.233 145.558L209.871 145.558ZM195.959 152.448C195.959 151.583 196.189 150.942 196.648 150.525C197.107 150.119 197.786 149.916 198.683 149.916L200.19 149.916L200.19 145.558L201.584 145.558L201.584 156.775L198.715 156.775C197.807 156.775 197.123 156.572 196.664 156.166C196.194 155.771 195.959 155.141 195.959 154.275L195.959 152.448ZM197.353 154.419C197.353 154.825 197.449 155.119 197.642 155.301C197.823 155.482 198.117 155.573 198.523 155.573L200.19 155.573L200.19 151.118L198.523 151.118C198.117 151.118 197.823 151.209 197.642 151.391C197.449 151.583 197.353 151.882 197.353 152.288L197.353 154.419ZM191.479 150.766L191.479 145.558L192.921 145.558L192.921 150.766L195.79 156.775L194.251 156.775L192.136 152.112L190.021 156.775L188.563 156.775L191.479 150.766ZM183.121 148.282C183.121 147.374 183.372 146.69 183.874 146.231C184.366 145.782 185.076 145.558 186.006 145.558L188.121 145.558L188.121 146.776L185.845 146.776C185.45 146.776 185.13 146.893 184.884 147.128C184.638 147.363 184.515 147.646 184.515 147.977L184.515 149.644C184.515 149.964 184.601 150.221 184.772 150.413C184.932 150.616 185.178 150.718 185.509 150.718L185.829 150.718C186.62 150.718 187.245 150.947 187.704 151.407C188.164 151.877 188.393 152.555 188.393 153.442L188.393 154.051C188.393 154.959 188.148 155.637 187.656 156.086C187.154 156.545 186.438 156.775 185.509 156.775L183.377 156.775L183.377 155.557L185.669 155.557C186.064 155.557 186.385 155.44 186.631 155.205C186.876 154.97 186.999 154.686 186.999 154.355L186.999 153.137C186.999 152.806 186.892 152.528 186.679 152.304C186.465 152.09 186.187 151.984 185.845 151.984L185.525 151.984C184.766 151.984 184.179 151.765 183.762 151.327C183.335 150.889 183.121 150.226 183.121 149.339L183.121 148.282ZM176.976 145.558L176.976 150.718L180.277 150.718L180.277 145.558L181.672 145.558L181.672 156.775L180.277 156.775L180.277 151.903L176.976 151.903L176.976 156.775L175.582 156.775L175.582 145.558L176.976 145.558ZM169.191 145.558L171.691 150.654L172.268 149.692L172.268 145.558L173.662 145.558L173.662 156.775L172.268 156.775L172.268 151.936L169.303 156.775L167.781 156.775L170.826 151.871L167.621 145.558L169.191 145.558ZM160.736 148.282C160.736 147.374 160.987 146.69 161.489 146.231C161.98 145.782 162.691 145.558 163.62 145.558L164.165 145.558C165.094 145.558 165.81 145.782 166.312 146.231C166.804 146.69 167.05 147.374 167.05 148.282L167.05 154.051C167.05 154.959 166.804 155.637 166.312 156.086C165.81 156.545 165.094 156.775 164.165 156.775L163.62 156.775C162.691 156.775 161.98 156.545 161.489 156.086C160.987 155.637 160.736 154.959 160.736 154.051L160.736 148.282ZM162.13 154.355C162.13 154.686 162.253 154.97 162.498 155.205C162.744 155.44 163.065 155.557 163.46 155.557L164.325 155.557C164.721 155.557 165.041 155.44 165.287 155.205C165.532 154.97 165.655 154.686 165.655 154.355L165.655 147.977C165.655 147.646 165.532 147.363 165.287 147.128C165.041 146.893 164.721 146.776 164.325 146.776L163.46 146.776C163.065 146.776 162.744 146.893 162.498 147.128C162.253 147.363 162.13 147.646 162.13 147.977L162.13 154.355Z" fill="#D7EEF5"/>
<path d="M125.543 146.968L123.139 150.621C122.787 151.156 122.552 151.524 122.434 151.727C122.317 151.941 122.236 152.149 122.194 152.352C122.151 152.555 122.13 152.849 122.13 153.234L122.13 154.355C122.13 154.686 122.252 154.97 122.498 155.205C122.744 155.44 123.064 155.557 123.46 155.557L125.222 155.557L125.222 156.775L123.62 156.775C122.69 156.775 121.98 156.545 121.489 156.086C120.987 155.637 120.735 154.959 120.735 154.051L120.735 153.378C120.735 152.844 120.762 152.438 120.816 152.16C120.869 151.882 120.965 151.62 121.104 151.375C121.232 151.129 121.489 150.712 121.873 150.125L124.085 146.776L120.415 146.776L120.415 145.558L125.543 145.558L125.543 146.968ZM113.865 148.09C113.865 147.203 114.079 146.557 114.506 146.151C114.933 145.755 115.628 145.558 116.589 145.558L118.48 145.558L118.48 146.759L116.445 146.759C116.039 146.759 115.74 146.85 115.548 147.032C115.355 147.224 115.259 147.523 115.259 147.929L115.259 149.58C115.259 149.932 115.366 150.21 115.58 150.413C115.793 150.627 116.077 150.734 116.429 150.734L117.984 150.734L117.984 151.936L116.589 151.936C116.258 151.936 115.98 152.042 115.756 152.256C115.532 152.47 115.42 152.753 115.42 153.105L115.42 154.419C115.42 154.825 115.516 155.119 115.708 155.301C115.89 155.482 116.183 155.573 116.589 155.573L118.48 155.573L118.48 156.775L116.782 156.775C115.874 156.775 115.19 156.572 114.73 156.166C114.26 155.771 114.025 155.141 114.025 154.275L114.025 153.266C114.025 152.443 114.319 151.823 114.907 151.407C114.212 151.022 113.865 150.365 113.865 149.436L113.865 148.09ZM106.915 145.558L107.524 148.394L110.649 148.394L111.274 145.558L112.7 145.558L109.992 156.775L108.149 156.775L105.489 145.558L106.915 145.558ZM109.094 155.717L110.392 149.596L107.78 149.596L109.094 155.717Z" fill="#D7EEF5"/>
<path d="M216.753 80.1764C216.753 79.2897 216.998 78.6113 217.49 78.1412C217.97 77.6818 218.622 77.4521 219.445 77.4521L219.605 77.4521C220.428 77.4521 221.085 77.6818 221.576 78.1412C222.057 78.6113 222.297 79.2897 222.297 80.1764L222.297 85.9453C222.297 86.8427 222.057 87.5211 221.576 87.9805C221.095 88.4399 220.438 88.6696 219.605 88.6696L219.445 88.6696C218.611 88.6696 217.954 88.4399 217.474 87.9805C216.993 87.5211 216.753 86.8427 216.753 85.9453L216.753 80.1764ZM218.115 86.2498C218.115 86.581 218.243 86.8641 218.499 87.0991C218.745 87.3448 219.06 87.4677 219.445 87.4677L219.605 87.4677C219.99 87.4677 220.31 87.3448 220.567 87.0991C220.812 86.8641 220.935 86.581 220.935 86.2498L220.935 79.8719C220.935 79.5407 220.812 79.2523 220.567 79.0066C220.31 78.7715 219.99 78.654 219.605 78.654L219.445 78.654C219.06 78.654 218.745 78.7715 218.499 79.0066C218.243 79.2523 218.115 79.5407 218.115 79.8719L218.115 86.2498ZM210.075 80.1764C210.075 79.3004 210.315 78.6273 210.796 78.1572C211.276 77.6872 211.88 77.4521 212.607 77.4521L213.007 77.4521C213.734 77.4521 214.337 77.6872 214.818 78.1572C215.299 78.6273 215.539 79.3004 215.539 80.1764L215.539 85.9453C215.539 86.8534 215.299 87.5318 214.818 87.9805C214.327 88.4399 213.616 88.6696 212.687 88.6696L210.844 88.6696L210.844 87.4517L212.847 87.4517C213.242 87.4517 213.563 87.3342 213.808 87.0991C214.054 86.8641 214.177 86.581 214.177 86.2498L214.177 84.5031L212.767 84.5031C211.848 84.5031 211.17 84.3001 210.732 83.8942C210.294 83.4882 210.075 82.8365 210.075 81.9391L210.075 80.1764ZM214.177 79.8719C214.177 79.53 214.065 79.2416 213.84 79.0066C213.616 78.7715 213.312 78.654 212.927 78.654L212.687 78.654C212.302 78.654 211.998 78.7715 211.773 79.0066C211.549 79.2416 211.437 79.53 211.437 79.8719L211.437 82.2436C211.437 82.5748 211.538 82.8312 211.741 83.0128C211.933 83.2051 212.222 83.3012 212.607 83.3012L214.177 83.3012L214.177 79.8719ZM208.797 83.8621L208.797 85.4646L207.194 85.4646L207.194 83.8621L208.797 83.8621ZM208.797 77.4521L208.797 79.0546L207.194 79.0546L207.194 77.4522L208.797 77.4521ZM200.953 79.9841C200.953 79.0974 201.167 78.451 201.594 78.0451C202.022 77.6498 202.716 77.4522 203.678 77.4522L205.617 77.4522L205.617 78.654L203.533 78.654C203.127 78.654 202.828 78.7448 202.636 78.9264C202.444 79.1187 202.347 79.4179 202.347 79.8238L202.347 81.859C202.347 82.2115 202.454 82.4893 202.668 82.6923C202.882 82.906 203.165 83.0128 203.517 83.0128L205.456 83.0128L205.456 88.6696L201.194 88.6696L201.194 87.4677L204.094 87.4677L204.094 84.2147L203.597 84.2147C202.775 84.2147 202.128 84.0117 201.658 83.6057C201.188 83.1997 200.953 82.5694 200.953 81.7148L200.953 79.9841ZM194.227 79.9841C194.227 79.0974 194.441 78.451 194.868 78.0451C195.296 77.6498 195.99 77.4522 196.951 77.4522L198.89 77.4522L198.89 78.654L196.807 78.654C196.401 78.654 196.102 78.7448 195.91 78.9264C195.718 79.1187 195.621 79.4179 195.621 79.8238L195.621 81.859C195.621 82.2115 195.728 82.4893 195.942 82.6923C196.156 82.906 196.439 83.0128 196.791 83.0128L198.73 83.0128L198.73 88.6696L194.468 88.6696L194.468 87.4677L197.368 87.4677L197.368 84.2147L196.871 84.2147C196.049 84.2147 195.402 84.0117 194.932 83.6057C194.462 83.1997 194.227 82.5694 194.227 81.7148L194.227 79.9841ZM188.659 77.4522L188.659 78.654L186.72 78.654L186.72 87.4036L188.819 86.5703L188.819 87.8683L186.88 88.6696L185.358 88.6696L185.358 78.654L183.771 78.654L183.771 77.4522L188.659 77.4522ZM182.397 78.8623L179.994 82.516C179.641 83.0502 179.406 83.4188 179.289 83.6217C179.171 83.8354 179.091 84.0437 179.048 84.2467C179.005 84.4497 178.984 84.7435 178.984 85.1281L178.984 86.2498C178.984 86.581 179.107 86.8641 179.353 87.0991C179.598 87.3342 179.919 87.4517 180.314 87.4517L182.077 87.4517L182.077 88.6696L180.474 88.6696C179.545 88.6696 178.834 88.4399 178.343 87.9805C177.841 87.5318 177.59 86.8534 177.59 85.9453L177.59 85.2723C177.59 84.7381 177.617 84.3322 177.67 84.0544C177.723 83.7766 177.82 83.5149 177.958 83.2692C178.087 83.0235 178.343 82.6068 178.728 82.0192L180.939 78.67L177.269 78.67L177.269 77.4522L182.397 77.4522L182.397 78.8623ZM166.092 79.9841C166.092 79.0653 166.306 78.4136 166.733 78.0291C167.15 77.6445 167.844 77.4522 168.816 77.4522L171.957 77.4522L171.957 88.6696L169.009 88.6696C168.047 88.6696 167.321 88.4719 166.829 88.0767C166.338 87.6921 166.092 87.0564 166.092 86.1697L166.092 79.9841ZM167.486 86.3139C167.486 86.6665 167.593 86.9442 167.807 87.1472C168.02 87.3609 168.304 87.4677 168.656 87.4677L170.563 87.4677L170.563 78.654L168.672 78.654C168.266 78.654 167.967 78.7448 167.775 78.9264C167.582 79.1187 167.486 79.4179 167.486 79.8238L167.486 86.3139ZM164.324 77.4522L164.324 88.6696L159.067 88.6696L159.067 87.4998L162.929 87.4998L162.929 83.8301L159.468 83.8301L159.468 82.6602L162.929 82.6602L162.929 78.622L159.067 78.622L159.067 77.4522L164.324 77.4522ZM154.826 77.4522C155.756 77.4522 156.472 77.6765 156.974 78.1252C157.465 78.5846 157.711 79.2683 157.711 80.1764L157.711 85.9453C157.711 86.8534 157.465 87.5318 156.974 87.9805C156.472 88.4399 155.756 88.6696 154.826 88.6696L152.871 88.6696L152.871 87.4517L154.987 87.4517C155.382 87.4517 155.702 87.3342 155.948 87.0991C156.194 86.8641 156.317 86.581 156.317 86.2498L156.317 79.8719C156.317 79.5407 156.194 79.2576 155.948 79.0226C155.702 78.7876 155.382 78.67 154.987 78.67L152.871 78.67L152.871 77.4522L154.826 77.4522ZM148.661 78.8623L146.257 82.516C145.904 83.0502 145.669 83.4188 145.552 83.6217C145.434 83.8354 145.354 84.0437 145.311 84.2467C145.269 84.4497 145.247 84.7435 145.247 85.1281L145.247 86.2498C145.247 86.581 145.37 86.8641 145.616 87.0991C145.862 87.3342 146.182 87.4517 146.577 87.4517L148.34 87.4517L148.34 88.6696L146.738 88.6696C145.808 88.6696 145.098 88.4399 144.606 87.9805C144.104 87.5318 143.853 86.8534 143.853 85.9453L143.853 85.2723C143.853 84.7381 143.88 84.3322 143.933 84.0544C143.987 83.7766 144.083 83.5149 144.222 83.2692C144.35 83.0235 144.606 82.6068 144.991 82.0192L147.202 78.67L143.533 78.67L143.533 77.4522L148.661 77.4522L148.661 78.8623ZM136.406 80.1764C136.406 79.2897 136.652 78.6113 137.143 78.1412C137.624 77.6818 138.276 77.4522 139.098 77.4522L139.258 77.4522C140.081 77.4522 140.738 77.6818 141.229 78.1412C141.71 78.6113 141.951 79.2897 141.951 80.1764L141.951 85.9453C141.951 86.8427 141.71 87.5211 141.229 87.9805C140.749 88.4399 140.092 88.6696 139.258 88.6696L139.098 88.6696C138.265 88.6696 137.608 88.4399 137.127 87.9805C136.646 87.5211 136.406 86.8427 136.406 85.9453L136.406 80.1764ZM137.768 86.2498C137.768 86.581 137.896 86.8641 138.153 87.0991C138.398 87.3449 138.714 87.4677 139.098 87.4677L139.258 87.4677C139.643 87.4677 139.963 87.3449 140.22 87.0991C140.466 86.8641 140.588 86.581 140.588 86.2498L140.588 79.8719C140.588 79.5407 140.466 79.2523 140.22 79.0066C139.963 78.7715 139.643 78.654 139.258 78.654L139.098 78.654C138.714 78.654 138.398 78.7715 138.153 79.0066C137.896 79.2523 137.768 79.5407 137.768 79.8719L137.768 86.2498ZM135.208 78.8623L132.805 82.516C132.452 83.0502 132.217 83.4188 132.1 83.6217C131.982 83.8354 131.902 84.0437 131.859 84.2467C131.817 84.4497 131.795 84.7435 131.795 85.1281L131.795 86.2498C131.795 86.581 131.918 86.8641 132.164 87.0991C132.409 87.3342 132.73 87.4517 133.125 87.4517L134.888 87.4517L134.888 88.6696L133.285 88.6696C132.356 88.6696 131.646 88.4399 131.154 87.9805C130.652 87.5318 130.401 86.8534 130.401 85.9453L130.401 85.2723C130.401 84.7381 130.428 84.3322 130.481 84.0544C130.535 83.7766 130.631 83.5149 130.77 83.2692C130.898 83.0235 131.154 82.6068 131.539 82.0193L133.75 78.67L130.08 78.67L130.08 77.4522L135.208 77.4522L135.208 78.8623ZM122.954 80.1764C122.954 79.2897 123.2 78.6113 123.691 78.1412C124.172 77.6818 124.823 77.4522 125.646 77.4522L125.806 77.4522C126.629 77.4522 127.286 77.6818 127.777 78.1412C128.258 78.6113 128.498 79.2897 128.498 80.1764L128.498 85.9453C128.498 86.8427 128.258 87.5211 127.777 87.9805C127.297 88.4399 126.64 88.6696 125.806 88.6696L125.646 88.6696C124.813 88.6696 124.156 88.4399 123.675 87.9805C123.194 87.5211 122.954 86.8427 122.954 85.9453L122.954 80.1764ZM124.316 86.2498C124.316 86.581 124.444 86.8641 124.701 87.0991C124.946 87.3449 125.261 87.4677 125.646 87.4677L125.806 87.4677C126.191 87.4677 126.511 87.3449 126.768 87.0991C127.013 86.8641 127.136 86.581 127.136 86.2498L127.136 79.8719C127.136 79.5407 127.013 79.2523 126.768 79.0066C126.511 78.7715 126.191 78.654 125.806 78.654L125.646 78.654C125.261 78.654 124.946 78.7715 124.701 79.0066C124.444 79.2523 124.316 79.5407 124.316 79.8719L124.316 86.2498Z" fill="#D7EEF5"/>
<path d="M209.696 112.495L206.697 112.495C203.629 112.495 202.281 110.377 202.281 106.304C202.281 101.882 203.513 99.4384 206.907 99.4384L209.696 99.4384L209.696 112.495ZM208.069 100.788L206.953 100.788C204.675 100.788 203.955 102.58 203.955 106.257C203.955 109.632 204.791 111.122 206.953 111.122L208.092 111.122L208.092 100.788L208.069 100.788Z" fill="#C6E1E8"/>
<path d="M194.332 105.606L198.655 105.606L198.655 100.835L193.843 100.835L194.053 99.4384L200.235 99.4384L200.235 112.495L194.122 112.495L194.122 111.075L198.655 111.075L198.655 107.049L194.332 107.049L194.332 105.606Z" fill="#C6E1E8"/>
<path d="M192.286 112.495L188.823 112.495C186.754 112.495 185.313 111.215 185.313 108.817C185.313 106.467 186.614 105.024 189.032 105.024L190.682 105.024L190.682 99.4384L192.286 99.4384L192.286 112.495ZM190.682 106.351L189.194 106.351C187.684 106.351 186.917 107.142 186.917 108.817C186.917 110.237 187.66 111.145 189.032 111.145L190.682 111.145L190.682 106.351V106.351Z" fill="#C6E1E8"/>
<path d="M182.989 103.418L183.872 99.4384L185.476 99.4384L182.361 112.495L180.269 112.495L177.062 99.4384L178.758 99.4384L179.665 103.418L182.989 103.418ZM179.99 104.838C180.688 107.91 181.176 109.911 181.338 110.982L181.385 110.982C181.571 109.842 182.059 107.561 182.687 104.838L179.99 104.838Z" fill="#C6E1E8"/>
<path d="M174.086 105.35L174.086 99.4155L175.69 99.4155L175.69 112.472L172.18 112.472C169.949 112.472 168.763 111.238 168.763 109.074C168.763 107.142 169.74 106.304 170.507 106.025C169.345 105.583 168.949 104.559 168.949 102.72L168.949 102.208C168.949 100.952 168.903 100.137 168.763 99.4387L170.344 99.4387C170.53 100.044 170.553 101.161 170.553 102.255L170.553 102.697C170.553 104.536 170.925 105.373 172.645 105.373L174.086 105.373L174.086 105.35ZM174.086 106.7L172.529 106.7C170.972 106.7 170.39 107.538 170.39 109.027C170.39 110.307 170.972 111.145 172.389 111.145L174.109 111.145L174.109 106.7L174.086 106.7Z" fill="#C6E1E8"/>
<path d="M164.952 111.052L167.834 111.052L167.834 112.472L160.466 112.472L160.466 111.052L163.348 111.052L163.348 99.4155L164.952 99.4155L164.952 111.052V111.052Z" fill="#C6E1E8"/>
<path d="M157.607 112.495L157.607 103.372C157.607 101.998 157.211 100.602 155.561 100.602C153.888 100.602 153.492 101.766 153.492 103.372L153.492 112.495L151.889 112.495L151.889 103.348C151.889 100.974 152.749 99.229 155.584 99.229C158.327 99.229 159.21 100.858 159.21 103.278L159.21 112.495L157.607 112.495Z" fill="#C6E1E8"/>
<path d="M147.914 105.35L147.914 99.4155L149.518 99.4155L149.518 112.472L146.008 112.472C143.777 112.472 142.591 111.238 142.591 109.074C142.591 107.142 143.567 106.304 144.334 106.025C143.172 105.583 142.777 104.559 142.777 102.72L142.777 102.208C142.777 100.952 142.731 100.137 142.591 99.4387L144.172 99.4387C144.358 100.044 144.381 101.161 144.381 102.255L144.381 102.697C144.381 104.536 144.753 105.373 146.473 105.373L147.914 105.373L147.914 105.35ZM147.914 106.7L146.357 106.7C144.799 106.7 144.218 107.538 144.218 109.027C144.218 110.307 144.799 111.145 146.217 111.145L147.937 111.145L147.937 106.7L147.914 106.7Z" fill="#C6E1E8"/>
<path d="M134.665 105.606L138.988 105.606L138.988 100.835L134.177 100.835L134.386 99.4384L140.569 99.4384L140.569 112.495L134.456 112.495L134.456 111.075L138.988 111.075L138.988 107.049L134.665 107.049L134.665 105.606Z" fill="#C6E1E8"/>
</g>
<defs>
<filter id="filter0_d_123_997" x="0.291859" y="0.937298" width="360.56" height="709.124" filterUnits="userSpaceOnUse" color-interpolation-filters="sRGB">
<feFlood flood-opacity="0" result="BackgroundImageFix"/>
<feColorMatrix in="SourceAlpha" type="matrix" values="0 0 0 0 0 0 0 0 0 0 0 0 0 0 0 0 0 0 127 0" result="hardAlpha"/>
<feOffset dx="13.3541"/>
<feGaussianBlur stdDeviation="20.0311"/>
<feColorMatrix type="matrix" values="0 0 0 0 0.555208 0 0 0 0 0.752283 0 0 0 0 0.8125 0 0 0 0.2 0"/>
<feBlend mode="normal" in2="BackgroundImageFix" result="effect1_dropShadow_123_997"/>
<feBlend mode="normal" in="SourceGraphic" in2="effect1_dropShadow_123_997" result="shape"/>
</filter>
<linearGradient id="paint0_linear_123_997" x1="167.199" y1="550.731" x2="167.199" y2="-303.501" gradientUnits="userSpaceOnUse">
<stop stop-color="white"/>
<stop offset="1" stop-color="#E1F4FD"/>
</linearGradient>
</defs>
</svg>
