<svg width="22" height="22" viewBox="0 0 22 22" fill="none" xmlns="http://www.w3.org/2000/svg">
<path fill-rule="evenodd" clip-rule="evenodd" d="M0 2C0 0.89543 0.895431 0 2 0H20C21.1046 0 22 0.895431 22 2V19.5C22 20.6046 21.1046 21.5 20 21.5H2C0.89543 21.5 0 20.6046 0 19.5V2ZM1 6C1 5.44772 1.44772 5 2 5H20C20.5523 5 21 5.44772 21 6V19.5C21 20.0523 20.5523 20.5 20 20.5H2C1.44772 20.5 1 20.0523 1 19.5V6ZM19 8.25C19 8.66421 18.6642 9 18.25 9C17.8358 9 17.5 8.66421 17.5 8.25C17.5 7.83579 17.8358 7.5 18.25 7.5C18.6642 7.5 19 7.83579 19 8.25ZM11.25 9C11.6642 9 12 8.66421 12 8.25C12 7.83579 11.6642 7.5 11.25 7.5C10.8358 7.5 10.5 7.83579 10.5 8.25C10.5 8.66421 10.8358 9 11.25 9ZM12 12.75C12 13.1642 11.6642 13.5 11.25 13.5C10.8358 13.5 10.5 13.1642 10.5 12.75C10.5 12.3358 10.8358 12 11.25 12C11.6642 12 12 12.3358 12 12.75ZM7.75 13.5C8.16421 13.5 8.5 13.1642 8.5 12.75C8.5 12.3358 8.16421 12 7.75 12C7.33579 12 7 12.3358 7 12.75C7 13.1642 7.33579 13.5 7.75 13.5ZM5 12.75C5 13.1642 4.66421 13.5 4.25 13.5C3.83579 13.5 3.5 13.1642 3.5 12.75C3.5 12.3358 3.83579 12 4.25 12C4.66421 12 5 12.3358 5 12.75ZM18.25 13.5C18.6642 13.5 19 13.1642 19 12.75C19 12.3358 18.6642 12 18.25 12C17.8358 12 17.5 12.3358 17.5 12.75C17.5 13.1642 17.8358 13.5 18.25 13.5ZM15.5 17.25C15.5 17.6642 15.1642 18 14.75 18C14.3358 18 14 17.6642 14 17.25C14 16.8358 14.3358 16.5 14.75 16.5C15.1642 16.5 15.5 16.8358 15.5 17.25ZM7.75 18C8.16421 18 8.5 17.6642 8.5 17.25C8.5 16.8358 8.16421 16.5 7.75 16.5C7.33579 16.5 7 16.8358 7 17.25C7 17.6642 7.33579 18 7.75 18ZM12 17.25C12 17.6642 11.6642 18 11.25 18C10.8358 18 10.5 17.6642 10.5 17.25C10.5 16.8358 10.8358 16.5 11.25 16.5C11.6642 16.5 12 16.8358 12 17.25ZM4.25 18C4.66421 18 5 17.6642 5 17.25C5 16.8358 4.66421 16.5 4.25 16.5C3.83579 16.5 3.5 16.8358 3.5 17.25C3.5 17.6642 3.83579 18 4.25 18ZM16.5 12.75C16.5 13.7165 15.7165 14.5 14.75 14.5C13.7835 14.5 13 13.7165 13 12.75C13 11.7835 13.7835 11 14.75 11C15.7165 11 16.5 11.7835 16.5 12.75ZM14.75 9C15.1642 9 15.5 8.66421 15.5 8.25C15.5 7.83579 15.1642 7.5 14.75 7.5C14.3358 7.5 14 7.83579 14 8.25C14 8.66421 14.3358 9 14.75 9ZM8.5 8.25C8.5 8.66421 8.16421 9 7.75 9C7.33579 9 7 8.66421 7 8.25C7 7.83579 7.33579 7.5 7.75 7.5C8.16421 7.5 8.5 7.83579 8.5 8.25Z" fill="#858E98"/>
</svg>
