<svg width="31" height="31" viewBox="0 0 31 31" fill="none" xmlns="http://www.w3.org/2000/svg">
<g clip-path="url(#clip0_3159_1180)">
<path d="M29.9085 17.9451C30.8334 10.1603 29.4642 5.24546 26.9945 3.0225L26.9958 3.02121C23.0097 -0.774999 9.54798 -1.33688 4.77915 3.19171C2.63756 5.40692 1.88323 8.65805 1.80056 12.6829C1.7179 16.709 1.61973 24.2511 8.64769 26.2971H8.65415L8.64769 29.4216C8.64769 29.4216 8.5999 30.6874 9.40848 30.9419C10.3333 31.2416 10.7518 30.6539 13.6284 27.218C18.4385 27.6352 22.1327 26.6794 22.5525 26.5399C23.5238 26.2144 29.0199 25.4872 29.9085 17.9451ZM14.1024 25.0196C14.1024 25.0196 11.0579 28.8158 10.1111 29.8014C9.80115 30.1217 9.46144 30.092 9.46661 29.4565C9.46661 29.0393 9.48986 24.2691 9.48986 24.2691C3.5314 22.5616 3.88273 16.1394 3.94731 12.7798C4.0119 9.41884 4.62673 6.6663 6.44023 4.81276C10.6239 0.889961 22.4259 1.767 25.4329 4.59317C29.109 7.85205 27.8005 17.0591 27.8083 17.3729C27.0527 23.6685 22.599 24.0676 21.7801 24.3402C21.43 24.4564 18.1815 25.2922 14.1024 25.0196Z" fill="#7D3DAF"/>
<path d="M29.9085 17.9451C30.8334 10.1603 29.4642 5.24546 26.9945 3.0225L26.9958 3.02121C23.0097 -0.774999 9.54798 -1.33688 4.77915 3.19171C2.63756 5.40692 1.88323 8.65805 1.80056 12.6829C1.7179 16.709 1.61973 24.2511 8.64769 26.2971H8.65415L8.64769 29.4216C8.64769 29.4216 8.5999 30.6874 9.40848 30.9419C10.3333 31.2416 10.7518 30.6539 13.6284 27.218C18.4385 27.6352 22.1327 26.6794 22.5525 26.5399C23.5238 26.2144 29.0199 25.4872 29.9085 17.9451Z" fill="#7D3DAF"/>
<path d="M15.787 5.55029C15.2897 5.55029 15.2897 6.32529 15.787 6.33175C19.6452 6.36146 22.8227 9.05071 22.8576 13.9836C22.8576 14.5041 23.6197 14.4977 23.6132 13.9771H23.6119C23.5706 8.66192 20.1012 5.58 15.787 5.55029Z" fill="white"/>
<path d="M20.862 13.166C20.8504 13.6801 21.6112 13.7046 21.6177 13.1841C21.681 10.2533 19.8739 7.83914 16.4781 7.58468C15.9808 7.54852 15.9292 8.32997 16.4252 8.36614C19.3702 8.5896 20.9215 10.5994 20.862 13.166Z" fill="white"/>
<path d="M20.0477 16.4998C19.4096 16.1303 18.7599 16.3603 18.4912 16.7232L17.9294 17.4504C17.6439 17.8198 17.1104 17.7708 17.1104 17.7708C13.2174 16.7413 12.1763 12.6674 12.1763 12.6674C12.1763 12.6674 12.1285 12.1158 12.485 11.82L13.1877 11.2388C13.539 10.9598 13.7612 10.2881 13.4034 9.62809C12.4475 7.90113 11.8056 7.30567 11.4788 6.84842C11.1352 6.41829 10.6185 6.32142 10.0812 6.61204H10.0696C8.95229 7.26563 7.72908 8.48884 8.12046 9.74821C8.78825 11.076 10.0153 15.3088 13.9265 18.507C15.7645 20.0195 18.6734 21.5695 19.9082 21.9273L19.9198 21.9454C21.1366 22.351 22.3197 21.08 22.9514 19.9291V19.9201C23.2316 19.3634 23.1386 18.8364 22.7292 18.4915C22.0033 17.7837 20.9079 17.0022 20.0477 16.4998Z" fill="white"/>
<path d="M17.0102 10.4677C18.2515 10.54 18.8535 11.1884 18.918 12.5201C18.9413 13.0407 19.6969 13.0045 19.6737 12.484C19.591 10.7454 18.6842 9.77664 17.0516 9.68622C16.5543 9.65651 16.5078 10.438 17.0102 10.4677Z" fill="white"/>
</g>
<defs>
<clipPath id="clip0_3159_1180">
<rect width="31" height="31" fill="white"/>
</clipPath>
</defs>
</svg>
