<svg width="42" height="42" viewBox="0 0 42 42" fill="none" xmlns="http://www.w3.org/2000/svg">
<g clip-path="url(#clip0_115_3003)">
<path d="M40.5207 24.3128C41.7737 13.7655 39.9187 7.10677 36.5727 4.09502L36.5744 4.09327C31.1739 -1.04999 12.9354 -1.81124 6.47441 4.32427C3.57291 7.32552 2.55091 11.7303 2.43891 17.1833C2.32691 22.638 2.19391 32.8563 11.7157 35.6283H11.7244L11.7157 39.8615C11.7157 39.8615 11.6509 41.5765 12.7464 41.9213C13.9994 42.3273 14.5664 41.531 18.4637 36.876C24.9807 37.4413 29.9857 36.1463 30.5544 35.9573C31.8704 35.5163 39.3167 34.531 40.5207 24.3128ZM19.1059 33.8975C19.1059 33.8975 14.9812 39.0408 13.6984 40.376C13.2784 40.81 12.8182 40.7698 12.8252 39.9088C12.8252 39.3435 12.8567 32.8808 12.8567 32.8808C4.78391 30.5673 5.25991 21.8663 5.34741 17.3145C5.43491 12.761 6.26791 9.03177 8.72491 6.52052C14.3932 1.20576 30.3829 2.39401 34.4569 6.22302C39.4374 10.6383 37.6647 23.1123 37.6752 23.5375C36.6514 32.067 30.6174 32.6078 29.5079 32.977C29.0337 33.1345 24.6324 34.2668 19.1059 33.8975Z" fill="#7D3DAF"/>
<path d="M40.5207 24.3128C41.7737 13.7655 39.9187 7.10677 36.5727 4.09502L36.5744 4.09327C31.1739 -1.04999 12.9354 -1.81124 6.47441 4.32427C3.57291 7.32552 2.55091 11.7303 2.43891 17.1833C2.32691 22.638 2.19391 32.8563 11.7157 35.6283H11.7244L11.7157 39.8615C11.7157 39.8615 11.6509 41.5765 12.7464 41.9213C13.9994 42.3273 14.5664 41.531 18.4637 36.876C24.9807 37.4413 29.9857 36.1463 30.5544 35.9573C31.8704 35.5163 39.3167 34.531 40.5207 24.3128Z" fill="#7D3DAF"/>
<path d="M21.3891 7.51978C20.7154 7.51978 20.7154 8.56978 21.3891 8.57853C26.6164 8.61878 30.9214 12.2623 30.9686 18.9455C30.9686 19.6508 32.0011 19.642 31.9924 18.9368H31.9906C31.9346 11.7355 27.2341 7.56003 21.3891 7.51978Z" fill="white"/>
<path d="M28.2637 17.8379C28.2479 18.5344 29.2787 18.5677 29.2874 17.8624C29.3732 13.8917 26.9249 10.6209 22.3242 10.2762C21.6504 10.2272 21.5804 11.2859 22.2524 11.3349C26.2424 11.6377 28.3442 14.3607 28.2637 17.8379Z" fill="white"/>
<path d="M27.1609 22.3547C26.2964 21.8542 25.4161 22.1657 25.0521 22.6574L24.2909 23.6427C23.9041 24.1432 23.1814 24.0767 23.1814 24.0767C17.9069 22.6819 16.4964 17.1624 16.4964 17.1624C16.4964 17.1624 16.4316 16.4152 16.9146 16.0144L17.8666 15.2269C18.3426 14.8489 18.6436 13.9389 18.1589 13.0447C16.8639 10.7049 15.9941 9.89815 15.5514 9.27865C15.0859 8.6959 14.3859 8.56465 13.6579 8.9584H13.6422C12.1284 9.8439 10.4712 11.5012 11.0014 13.2074C11.9062 15.0064 13.5686 20.7412 18.8676 25.0742C21.3579 27.1234 25.2989 29.2234 26.9719 29.7082L26.9876 29.7327C28.6361 30.2822 30.2391 28.5602 31.0949 27.0009V26.9887C31.4746 26.2344 31.3486 25.5204 30.7939 25.0532C29.8104 24.0942 28.3264 23.0354 27.1609 22.3547Z" fill="white"/>
<path d="M23.0454 14.182C24.7271 14.28 25.5426 15.1585 25.6301 16.9628C25.6616 17.668 26.6854 17.619 26.6539 16.9138C26.5419 14.5583 25.3134 13.2458 23.1014 13.1233C22.4276 13.083 22.3646 14.1418 23.0454 14.182Z" fill="white"/>
</g>
<defs>
<clipPath id="clip0_115_3003">
<rect width="42" height="42" fill="white"/>
</clipPath>
</defs>
</svg>
