<svg width="39" height="39" viewBox="0 0 39 39" fill="none" xmlns="http://www.w3.org/2000/svg">
<g clip-path="url(#clip0_115_2999)">
<path d="M33.345 5.60462C29.64 2.02312 24.765 0 19.5731 0C4.67188 0 -4.68488 16.1444 2.756 28.9867L0 39L10.2944 36.3155C14.7794 38.7384 18.4535 38.5239 19.5829 38.6669C36.8615 38.6669 45.4626 17.7629 33.3206 5.668L33.345 5.60462Z" fill="#4CAF50"/>
<path d="M19.6086 35.3453L19.5988 35.3437H19.5728C14.4021 35.3437 11.0984 32.8948 10.7734 32.7535L4.67969 34.3378L6.31281 28.4147L5.92444 27.8053C4.31569 25.2444 3.46094 22.295 3.46094 19.2579C3.46094 4.96923 20.9216 -2.1759 31.0258 7.92348C41.1057 17.9172 34.0288 35.3453 19.6086 35.3453Z" fill="#4CAF50"/>
<path d="M28.4481 23.2488L28.4335 23.3707C27.9444 23.1269 25.5621 21.9618 25.1185 21.8009C24.1224 21.4321 24.4035 21.7424 22.4909 23.9329C22.2065 24.2498 21.9237 24.2742 21.4411 24.0548C20.9536 23.8111 19.3887 23.2992 17.5362 21.6417C16.0932 20.3498 15.1247 18.7654 14.8387 18.2779C14.3626 17.4557 15.3587 17.3387 16.2655 15.6227C16.428 15.2814 16.3451 15.0133 16.2249 14.7712C16.103 14.5274 15.1329 12.1387 14.7266 11.1864C14.3366 10.2374 13.9352 10.3577 13.6346 10.3577C12.6986 10.2764 12.0145 10.2894 11.4116 10.9167C8.78887 13.7994 9.45025 16.7732 11.6944 19.9354C16.1046 25.7074 18.4544 26.7702 22.7509 28.2457C23.9111 28.6146 24.969 28.5626 25.8059 28.4423C26.7386 28.2944 28.6772 27.2707 29.0819 26.1251C29.4962 24.9794 29.4962 24.0288 29.3744 23.8094C29.2541 23.5901 28.9356 23.4682 28.4481 23.2488Z" fill="#FAFAFA"/>
</g>
<defs>
<clipPath id="clip0_115_2999">
<rect width="39" height="39" fill="white"/>
</clipPath>
</defs>
</svg>
